<svg id="Layer_3" data-name="Layer 3" xmlns="http://www.w3.org/2000/svg" viewBox="0 0 62.87124 75.03704"><defs><style>.cls-1{fill:#00b2ab;}</style></defs><path class="cls-1" d="M78.65256,55.95063A18.15234,18.15234,0,0,0,72.83419,50.332H61.28691a1.00989,1.00989,0,1,1,0-2.01978H72.86862a16.83924,16.83924,0,0,0,4.2849-5.22453,21.6763,21.6763,0,0,0,2.13971-10.237,21.9582,21.9582,0,0,0-1.87517-9.64728,16.504,16.504,0,0,0-5.19152-6.27718A21.057,21.057,0,0,0,64.522,13.50379a40.83356,40.83356,0,0,0-9.31108-1.02231H19.41866a.85082.85082,0,0,0-.08819,1.6974l-.00818.00282s5.59926,1.83792,5.59926,7.11212V78.7035c0,5.2742-5.59926,7.11494-5.59926,7.11494H19.336a.85194.85194,0,0,0,.08268,1.70008H57.34921a40.9941,40.9941,0,0,0,9.31376-1.0168,21.02454,21.02454,0,0,0,7.70609-3.43614,16.46622,16.46622,0,0,0,5.19012-6.269,22.04691,22.04691,0,0,0,1.87644-9.65Q81.43562,60.18595,78.65256,55.95063ZM45.88869,20.11449C48.50385,31.05962,62.75561,33.80416,58.3536,47.90721c-2.9113-2.57368-10.76878-10.40238-11.87785-20.81012,1.44105,15.95748,10.4629,22.29264,10.4629,22.29264S38.04081,48.10557,45.88869,20.11449Zm-.01649,58.589C38.01612,50.67926,56.93583,49.38973,56.93583,49.38973s-9.03272,6.346-10.47531,22.32284C47.56959,61.291,55.4368,53.45413,58.35219,50.87494,62.75843,64.99732,48.49,67.74736,45.8722,78.7035Z" transform="translate(-18.56438 -12.48148)"/></svg>