<?xml version="1.0" encoding="utf-8"?>
<!-- Generator: Adobe Illustrator 24.1.1, SVG Export Plug-In . SVG Version: 6.00 Build 0)  -->
<svg version="1.1" id="Layer_1" xmlns="http://www.w3.org/2000/svg" xmlns:xlink="http://www.w3.org/1999/xlink" x="0px" y="0px"
	 viewBox="0 0 533.3 529.7" style="enable-background:new 0 0 533.3 529.7;" xml:space="preserve">
<style type="text/css">
	.st0{fill:#0B0E11;}
	.st1{fill:#F0B90B;}
</style>
<ellipse class="st0" cx="266.7" cy="264.8" rx="266.7" ry="264.8"/>
<path class="st1" d="M191.9,232.3l74.8-74.8l74.8,74.8l43.5-43.5L266.7,70.4L148.3,188.7L191.9,232.3z M117.6,219.5l43.5,43.5
	l-43.5,43.5L74.1,263L117.6,219.5z M191.9,293.7l74.8,74.8l74.8-74.8l43.6,43.5l0,0L266.7,455.6L148.3,337.3l-0.1-0.1L191.9,293.7z
	 M459.3,263l-43.5,43.5L372.2,263l43.5-43.5L459.3,263z"/>
<path class="st1" d="M310.8,263L310.8,263l-44.1-44.2L222.5,263l0.1,0.1l44.1,44.1L310.8,263L310.8,263z"/>
</svg>
