<svg id="Layer_2" data-name="Layer 2" xmlns="http://www.w3.org/2000/svg" viewBox="0 0 69.27314 95.90648"><defs><style>.cls-1{fill:#ff8500;}</style></defs><path id="symbol" class="cls-1" d="M80.01544,31.60379C79.01983,21.131,69.98414,17.61091,58.5725,16.59889L58.58768,2.0737l-8.84135-.00849L49.7318,16.20757c-2.32427-.00217-4.70017.04121-7.06067.08579l.01646-14.236L33.851,2.04771l-.01872,14.521c-1.91424.037-3.7941.0706-5.62708.06986l-.00111-.045-12.1944-.01715-.00773,9.44286s6.52914-.11751,6.42048.00261c3.58123.00489,4.74457,2.0852,5.08169,3.87965l-.01683,16.54722a7.10513,7.10513,0,0,1,.93446.06263c-.29453.00009-.60981-.00223-.934.00019l-.0269,23.181A3.12271,3.12271,0,0,1,24.136,72.6175c.113.10034-6.427-.00854-6.427-.00854l-1.76794,10.557,11.50578.01183c2.14115.00482,4.24786.04336,6.31609.05872L33.75105,97.927l8.83186.01084L42.5981,83.4026c2.42493.0527,4.77169.07447,7.06277.07481L49.64165,97.9457l8.84134.00849.01837-14.66446c14.865-.837,25.27251-4.57068,26.57924-18.52772,1.055-11.23851-4.22685-16.2593-12.66237-18.29447,5.12884-2.60476,8.33859-7.20045,7.59719-14.86375Zm-12.403,31.39869c-.00678,10.97835-18.80326,9.70963-24.79528,9.70895l.023-19.46411C48.83392,53.25513,67.62536,51.55182,67.61245,63.00248ZM63.52966,35.5369c-.0134,9.98807-15.68926,8.80584-20.68034,8.80093l.0193-17.65306C47.85969,26.68968,63.53964,25.11918,63.52966,35.5369Z" transform="translate(-15.94108 -2.04771)"/></svg>