<?xml version="1.0" encoding="utf-8"?>
<!-- Generator: Adobe Illustrator 16.0.0, SVG Export Plug-In . SVG Version: 6.00 Build 0)  -->
<!DOCTYPE svg PUBLIC "-//W3C//DTD SVG 1.1//EN" "http://www.w3.org/Graphics/SVG/1.1/DTD/svg11.dtd">
<svg version="1.1" id="레이어_1" xmlns="http://www.w3.org/2000/svg" xmlns:xlink="http://www.w3.org/1999/xlink" x="0px"
	 y="0px" width="293.775px" height="293.671px" viewBox="0 0 293.775 293.671" enable-background="new 0 0 293.775 293.671"
	 xml:space="preserve">
<path id="Path_1" fill="#FFFFFF" d="M61.055,139.822c-0.002-6.875,5.571-12.451,12.447-12.452c0.021,0,0.04,0,0.061,0l20.736,0.068
	c6.886,0,12.468,5.582,12.468,12.467l0,0v78.414c2.336-0.692,5.332-1.43,8.613-2.2c4.692-1.104,8.008-5.29,8.01-10.109v-97.266
	c-0.001-6.887,5.581-12.47,12.468-12.47h20.778c6.885,0.001,12.466,5.582,12.467,12.467v90.279c0,0,5.2-2.105,10.269-4.245
	c3.849-1.628,6.35-5.399,6.354-9.577V77.57c-0.001-6.885,5.58-12.466,12.465-12.467h0.001h20.778
	c6.885,0,12.467,5.582,12.468,12.467v88.625c18.014-13.055,36.271-28.758,50.759-47.639c4.27-5.567,5.465-12.903,3.185-19.537
	C265.296,40.484,210.616,0.866,148.737,0.013C67.298-1.081-0.007,65.398,0.001,146.847c-0.08,25.773,6.647,51.11,19.5,73.449
	c3.619,6.238,10.524,9.816,17.707,9.174c3.932-0.346,8.825-0.836,14.644-1.518c5.242-0.598,9.203-5.03,9.209-10.307v-77.824"/>
<path id="Path_2" fill="#FFFFFF" d="M60.603,265.58c65.565,47.697,157.384,33.213,205.081-32.354
	c18.261-25.102,28.096-55.346,28.091-86.387c0-3.381-0.157-6.724-0.383-10.049c-53.643,80-152.687,117.4-232.79,128.793"/>
</svg>
