<svg id="Layer_1" data-name="Layer 1" xmlns="http://www.w3.org/2000/svg" viewBox="0 0 86.6051 100"><defs><style>.cls-1{fill:#262138;}.cls-2{fill:#595563;}</style></defs><path class="cls-1" d="M50.34286,4.12713,90.14541,27.10646V73.065L50.34286,96.0443,10.54031,73.065V27.10646L50.34286,4.12713m0-4.04142-43.30255,25v50l43.30255,25,43.30255-25v-50l-43.30255-25Z" transform="translate(-7.04031 -0.08571)"/><polygon class="cls-2" points="58.102 20.209 43.303 11.665 28.503 20.209 26.753 17.178 43.303 7.624 59.852 17.178 58.102 20.209"/><polygon class="cls-2" points="10.102 47.921 6.602 47.921 6.602 28.812 23.152 19.257 24.902 22.288 10.102 30.832 10.102 47.921"/><polygon class="cls-2" points="23.152 80.743 6.602 71.188 6.602 52.079 10.102 52.079 10.102 69.168 24.902 77.712 23.152 80.743"/><polygon class="cls-2" points="43.303 92.376 26.753 82.822 28.503 79.791 43.303 88.335 58.102 79.791 59.852 82.822 43.303 92.376"/><polygon class="cls-2" points="63.454 80.743 61.704 77.712 76.503 69.168 76.503 52.079 80.003 52.079 80.003 71.188 63.454 80.743"/><polygon class="cls-2" points="80.003 47.921 76.503 47.921 76.503 30.832 61.704 22.288 63.454 19.257 80.003 28.812 80.003 47.921"/></svg>