<?xml version="1.0" encoding="utf-8"?>
<!-- Generator: Adobe Illustrator 16.0.0, SVG Export Plug-In . SVG Version: 6.00 Build 0)  -->
<!DOCTYPE svg PUBLIC "-//W3C//DTD SVG 1.1//EN" "http://www.w3.org/Graphics/SVG/1.1/DTD/svg11.dtd">
<svg version="1.1" id="레이어_1" xmlns="http://www.w3.org/2000/svg" xmlns:xlink="http://www.w3.org/1999/xlink" x="0px"
	 y="0px" width="100px" height="100px" viewBox="0 0 100 100" enable-background="new 0 0 100 100" xml:space="preserve">
<g id="레이어_1_1_" display="none">
	<path display="inline" fill="#005A99" d="M34.957,78.123c-0.05,0-0.101-0.001-0.151-0.002c-2.107-0.081-3.94-1.818-5.453-5.167
		c-1.595-0.899-7.214-4.392-8.383-9.443h-2.317c-0.709,0-1.285-0.575-1.285-1.284V49.55c0-0.347,0.141-0.679,0.389-0.921
		c0.249-0.242,0.581-0.371,0.931-0.363l2.152,0.06c0.246-2.028,1.311-5.943,5.625-10.132c-0.56-2.125-1.328-6.399,1-7.938
		c1.868-1.234,4.75-0.169,9.042,3.353c0.71-0.188,1.947-0.49,3.563-0.791c0.696-0.128,1.368,0.329,1.499,1.027
		c0.13,0.698-0.33,1.368-1.027,1.499c-2.414,0.45-3.955,0.909-3.97,0.913c-0.416,0.125-0.866,0.031-1.198-0.249
		c-5.188-4.38-6.44-3.643-6.492-3.608c-0.652,0.431-0.526,3.258,0.261,5.816c0.146,0.475,0.005,0.99-0.361,1.325
		c-5.799,5.304-5.443,9.939-5.438,9.986c0.034,0.366-0.091,0.729-0.342,0.997c-0.251,0.27-0.61,0.414-0.973,0.406l-2.091-0.059
		v10.072h2.126c0.667,0,1.224,0.511,1.28,1.177c0.421,5.011,7.525,8.739,7.596,8.774c0.265,0.139,0.475,0.362,0.592,0.638
		c1.091,2.551,2.287,3.979,3.368,4.021c1.414,0.053,3.011-2.145,3.575-3.219c0.325-0.619,1.085-0.867,1.712-0.555
		c4.086,2.039,14.138,0.93,17.665,0.33c0.485-0.086,0.979,0.121,1.265,0.523c1.091,1.542,2.129,2.266,3.093,2.16
		c2.008-0.227,3.911-3.796,4.42-5.027c0.063-0.151,0.153-0.291,0.266-0.408c10.914-11.229,4.734-22.897,4.67-23.015
		c-0.019-0.034-0.035-0.07-0.051-0.106c-2.141-4.95-5.916-8.389-11.225-10.222c-0.67-0.231-1.025-0.963-0.794-1.633
		s0.962-1.027,1.634-0.795c6.004,2.074,10.285,5.974,12.725,11.592c0.529,1.039,6.594,13.735-4.947,25.795
		c-0.54,1.232-2.838,5.965-6.404,6.371c-1.775,0.203-3.452-0.666-4.994-2.582c-2.768,0.413-12.094,1.604-17.363-0.227
		C39.229,75.909,37.377,78.123,34.957,78.123z"/>
	<path display="inline" fill="#005A99" d="M42.688,39.381c-0.311,0-0.616-0.15-0.802-0.428c-1.143-1.709-1.747-3.705-1.747-5.771
		c0-5.735,4.667-10.402,10.402-10.402c5.736,0,10.402,4.667,10.402,10.402c0,1.767-0.45,3.512-1.303,5.045
		c-0.258,0.465-0.845,0.634-1.311,0.375c-0.465-0.259-0.632-0.845-0.374-1.31c0.694-1.248,1.062-2.669,1.062-4.109
		c0-4.673-3.803-8.475-8.477-8.475c-4.673,0-8.475,3.802-8.475,8.475c0,1.684,0.492,3.309,1.422,4.701
		c0.296,0.442,0.177,1.04-0.266,1.336C43.058,39.329,42.871,39.381,42.688,39.381z"/>
	<path display="inline" fill="#005A99" d="M44.558,37.416c-0.104,0-0.206-0.05-0.268-0.143c-0.804-1.205-1.229-2.609-1.229-4.061
		c0-4.036,3.284-7.32,7.32-7.32c4.036,0,7.319,3.284,7.319,7.32c0,1.243-0.317,2.47-0.916,3.549
		c-0.086,0.155-0.281,0.212-0.437,0.125c-0.156-0.086-0.212-0.282-0.125-0.437c0.547-0.984,0.836-2.104,0.836-3.238
		c0-3.682-2.996-6.678-6.678-6.678s-6.678,2.996-6.678,6.678c0,1.325,0.388,2.605,1.121,3.705c0.099,0.147,0.059,0.347-0.089,0.445
		C44.681,37.398,44.619,37.416,44.558,37.416z"/>
	<path display="inline" fill="#005A99" d="M50.798,28.192v0.606c0.425,0.042,0.789,0.124,1.095,0.247
		c0.303,0.124,0.568,0.311,0.795,0.561c0.18,0.19,0.316,0.386,0.416,0.589c0.096,0.202,0.146,0.387,0.146,0.555
		c0,0.187-0.074,0.348-0.22,0.485c-0.146,0.136-0.319,0.204-0.526,0.204c-0.39,0-0.644-0.198-0.757-0.594
		c-0.133-0.468-0.447-0.779-0.948-0.931v2.332c0.493,0.127,0.886,0.244,1.179,0.348c0.291,0.105,0.553,0.256,0.783,0.455
		c0.246,0.205,0.436,0.452,0.568,0.737c0.134,0.286,0.199,0.6,0.199,0.939c0,0.426-0.106,0.826-0.318,1.198
		c-0.214,0.372-0.523,0.675-0.938,0.911c-0.414,0.235-0.903,0.375-1.474,0.419v1.397c0,0.22-0.022,0.381-0.067,0.482
		c-0.047,0.101-0.146,0.151-0.301,0.151c-0.144,0-0.243-0.042-0.301-0.123c-0.058-0.082-0.087-0.209-0.087-0.381v-1.515
		c-0.464-0.049-0.872-0.151-1.218-0.308c-0.348-0.157-0.638-0.353-0.871-0.586c-0.232-0.234-0.404-0.477-0.515-0.729
		s-0.168-0.5-0.168-0.743c0-0.179,0.075-0.341,0.225-0.485c0.148-0.144,0.335-0.216,0.557-0.216c0.178,0,0.33,0.039,0.453,0.118
		c0.124,0.079,0.209,0.188,0.256,0.331c0.108,0.307,0.201,0.541,0.281,0.704c0.079,0.163,0.2,0.312,0.36,0.445
		c0.161,0.135,0.374,0.238,0.641,0.309v-2.607c-0.533-0.138-0.978-0.292-1.335-0.463c-0.357-0.17-0.648-0.412-0.871-0.726
		c-0.221-0.314-0.333-0.718-0.333-1.212c0-0.642,0.218-1.17,0.653-1.582c0.435-0.41,1.064-0.65,1.886-0.718v-0.595
		c0-0.314,0.125-0.47,0.376-0.47C50.671,27.733,50.798,27.886,50.798,28.192z M50.041,32.04v-2.148
		c-0.333,0.094-0.594,0.217-0.781,0.37c-0.186,0.153-0.28,0.385-0.28,0.696c0,0.295,0.088,0.519,0.262,0.669
		C49.418,31.78,49.683,31.917,50.041,32.04z M50.798,33.706v2.457c0.401-0.075,0.711-0.226,0.931-0.454s0.328-0.493,0.328-0.796
		c0-0.325-0.106-0.577-0.32-0.754C51.523,33.98,51.211,33.829,50.798,33.706z"/>
	<path display="inline" fill="#005A99" d="M60.337,40.919c-0.103,0-0.205-0.017-0.308-0.051c-8.379-2.823-18.133-0.104-18.231-0.075
		c-0.513,0.144-1.045-0.151-1.19-0.662c-0.146-0.511,0.149-1.044,0.661-1.191c0.421-0.121,10.417-2.917,19.377,0.102
		c0.504,0.17,0.773,0.716,0.604,1.22C61.115,40.665,60.739,40.919,60.337,40.919z"/>
	<path display="inline" fill="#005A99" d="M77.214,52.82c-1.856,0-3.601-0.605-4.653-2.021c-0.317-0.427-0.229-1.03,0.197-1.348
		c0.428-0.317,1.03-0.229,1.348,0.198c1.33,1.789,4.722,1.527,7.055,0.162c0.048-0.028,0.099-0.059,0.152-0.092
		c-1.867-0.498-2.365-1.803-2.498-2.472c-0.365-1.844,0.925-4.107,2.653-4.657c0.535-0.17,2.367-0.526,3.503,2.017
		c0.43,0.965,0.541,1.942,0.355,2.875c1.037-0.565,1.771-1.597,2.125-3.022c0.008-0.033,0.015-0.069,0.021-0.107
		c-1.148-0.337-2.218-1.029-2.742-1.834c-0.703-1.08-0.477-2.29,0.594-3.156c1.154-0.934,2.089-0.519,2.437-0.298
		c0.96,0.611,1.416,2.153,1.58,3.535c0.058-0.017,0.11-0.037,0.159-0.062c1.966-1.008,2.141-3.887,2.073-6.282
		c-0.015-0.532,0.403-0.975,0.937-0.99c0.518-0.015,0.975,0.404,0.99,0.936c0.053,1.903,0.178,6.359-3.12,8.05
		c-0.303,0.155-0.642,0.25-0.997,0.293c-0.017,0.15-0.037,0.277-0.063,0.378c-0.697,2.813-2.582,4.594-5.191,4.928
		c-0.518,0.6-1.188,1.148-1.996,1.624C80.688,52.32,78.902,52.82,77.214,52.82z M82.234,44.397c-0.061,0-0.121,0.01-0.184,0.029
		c-0.736,0.234-1.537,1.487-1.348,2.447c0.188,0.949,1.414,1.133,2.393,1.118c0.406-0.706,0.568-1.579,0.113-2.6
		C82.915,44.73,82.588,44.397,82.234,44.397z M86.762,40.715c-0.039,0.017-0.113,0.055-0.225,0.145
		c-0.385,0.312-0.299,0.442-0.191,0.607c0.191,0.294,0.563,0.567,0.994,0.775C87.201,41.531,86.991,40.898,86.762,40.715z"/>
	<path display="inline" fill="#005A99" d="M73.984,71.042c-0.287,0-0.572-0.129-0.762-0.373c-0.326-0.421-0.25-1.024,0.17-1.353
		c0.787-0.608,2.608-2.229,2.558-4.094c-0.017-0.531,0.403-0.975,0.936-0.988c0.527-0.012,0.976,0.402,0.99,0.936
		c0.077,2.747-2.283,4.88-3.302,5.67C74.398,70.977,74.191,71.042,73.984,71.042z"/>
	<path display="inline" fill="#005A99" d="M75.287,74.298c-0.303,0-0.602-0.143-0.789-0.409c-0.307-0.435-0.202-1.035,0.232-1.342
		l0.244-0.172c2.971-2.09,5.346-4.018,4.305-6.477c-0.206-0.49,0.022-1.057,0.513-1.264c0.49-0.209,1.056,0.022,1.263,0.512
		c1.73,4.092-2.302,6.927-4.971,8.804l-0.243,0.172C75.673,74.24,75.479,74.298,75.287,74.298z"/>
	<path display="inline" fill="#005A99" d="M14.422,67.788c-0.053,0-0.105-0.004-0.159-0.013c-1.2-0.2-2.161-0.778-2.778-1.674
		c-0.677-0.979-0.895-2.295-0.613-3.697c0.105-0.522,0.612-0.859,1.134-0.756c0.521,0.104,0.86,0.611,0.755,1.134
		c-0.178,0.889-0.068,1.679,0.31,2.227c0.318,0.461,0.826,0.752,1.508,0.866c0.525,0.087,0.879,0.583,0.792,1.107
		C15.293,67.454,14.884,67.788,14.422,67.788z"/>
	<path display="inline" fill="#005A99" d="M14.096,71.042c-0.118,0-0.237-0.021-0.353-0.067c-2.16-0.852-6.457-3.783-7.089-7.012
		c-0.271-1.382,0.16-2.658,1.244-3.693c0.385-0.367,0.995-0.354,1.362,0.031c0.368,0.385,0.353,0.994-0.032,1.361
		c-0.61,0.582-0.827,1.195-0.684,1.931c0.454,2.32,4.085,4.872,5.905,5.591c0.495,0.194,0.738,0.754,0.543,1.248
		C14.842,70.811,14.479,71.042,14.096,71.042z"/>
	<circle display="inline" fill="#005A99" cx="31.232" cy="49.359" r="2.408"/>
</g>
<g id="레이어_2" display="none">
	<path display="inline" fill="#005A99" d="M78.113,91.717H23.694C18.9,91.717,15,87.945,15,83.313V12.765
		c0-4.635,3.9-8.406,8.694-8.406h54.419c4.794,0,8.693,3.771,8.693,8.406v70.547C86.807,87.945,82.907,91.717,78.113,91.717z
		 M23.694,8.359c-2.588,0-4.694,1.977-4.694,4.406v70.547c0,2.429,2.105,4.403,4.694,4.403h54.419c2.588,0,4.693-1.976,4.693-4.403
		V12.765c0-2.429-2.105-4.406-4.693-4.406H23.694z"/>
	<path display="inline" fill="#005A99" d="M71.473,52.375H28.542c-0.829,0-1.5-0.672-1.5-1.5s0.671-1.5,1.5-1.5h42.931
		c0.828,0,1.5,0.671,1.5,1.5S72.301,52.375,71.473,52.375z"/>
	<path display="inline" fill="#005A99" d="M71.029,40.693H50.008c-0.829,0-1.5-0.671-1.5-1.5c0-0.829,0.671-1.5,1.5-1.5h21.021
		c0.828,0,1.5,0.671,1.5,1.5C72.529,40.022,71.857,40.693,71.029,40.693z"/>
	<path display="inline" fill="#005A99" d="M71.029,31.135H50.008c-0.829,0-1.5-0.671-1.5-1.5c0-0.829,0.671-1.5,1.5-1.5h21.021
		c0.828,0,1.5,0.671,1.5,1.5C72.529,30.464,71.857,31.135,71.029,31.135z"/>
	<path display="inline" fill="#005A99" d="M71.473,62.938H28.542c-0.829,0-1.5-0.672-1.5-1.5s0.671-1.5,1.5-1.5h42.931
		c0.828,0,1.5,0.672,1.5,1.5S72.301,62.938,71.473,62.938z"/>
	<path display="inline" fill="#005A99" d="M71.473,73.5H28.542c-0.829,0-1.5-0.672-1.5-1.5s0.671-1.5,1.5-1.5h42.931
		c0.828,0,1.5,0.672,1.5,1.5S72.301,73.5,71.473,73.5z"/>
	<path display="inline" fill="#005A99" d="M13.595,93.783c-0.116,0-0.233-0.02-0.347-0.063c-3.103-1.147-3.641-6.045-2.636-8.778
		c0.19-0.52,0.765-0.784,1.283-0.594c0.519,0.19,0.784,0.766,0.594,1.283c-0.691,1.883-0.298,5.564,1.454,6.214
		c0.518,0.191,0.782,0.767,0.591,1.285C14.383,93.534,14.001,93.783,13.595,93.783z"/>
	<path display="inline" fill="#005A99" d="M7.802,96.51c-0.155,0-0.313-0.035-0.46-0.111c-4.095-2.129-3.916-7.142-2.518-10.789
		c0.197-0.516,0.776-0.771,1.292-0.574c0.516,0.197,0.773,0.775,0.576,1.292c-0.399,1.041-2.2,6.336,1.572,8.295
		c0.49,0.255,0.681,0.858,0.426,1.349C8.512,96.313,8.163,96.51,7.802,96.51z"/>
	<g display="inline">
		<path fill="#005A99" d="M36.547,18.203v1.224c0.863,0.084,1.602,0.251,2.219,0.5c0.616,0.25,1.156,0.628,1.615,1.133
			c0.364,0.385,0.645,0.782,0.842,1.191c0.197,0.408,0.298,0.781,0.298,1.122c0,0.378-0.15,0.704-0.443,0.98
			c-0.295,0.275-0.651,0.413-1.07,0.413c-0.791,0-1.305-0.4-1.537-1.2c-0.266-0.945-0.908-1.574-1.923-1.883v4.714
			c0.999,0.258,1.796,0.492,2.389,0.704c0.592,0.212,1.123,0.518,1.591,0.918c0.499,0.416,0.883,0.913,1.153,1.49
			c0.272,0.578,0.406,1.211,0.406,1.899c0,0.861-0.218,1.668-0.648,2.421c-0.433,0.751-1.064,1.365-1.904,1.842
			c-0.839,0.476-1.833,0.757-2.988,0.848v2.825c0,0.445-0.046,0.771-0.139,0.975c-0.094,0.204-0.297,0.305-0.611,0.305
			c-0.292,0-0.494-0.083-0.611-0.25c-0.117-0.166-0.176-0.422-0.176-0.771v-3.061c-0.943-0.099-1.77-0.306-2.473-0.623
			c-0.706-0.317-1.295-0.713-1.767-1.186c-0.471-0.472-0.82-0.964-1.045-1.473c-0.227-0.511-0.341-1.01-0.341-1.502
			c0-0.363,0.153-0.69,0.456-0.98c0.301-0.291,0.68-0.437,1.13-0.437c0.362,0,0.67,0.079,0.919,0.238
			c0.25,0.159,0.424,0.381,0.519,0.669c0.219,0.619,0.409,1.093,0.57,1.422c0.161,0.328,0.405,0.63,0.731,0.899
			c0.326,0.273,0.759,0.481,1.301,0.624v-5.27c-1.082-0.279-1.984-0.591-2.71-0.935c-0.726-0.344-1.315-0.833-1.767-1.467
			c-0.449-0.635-0.677-1.452-0.677-2.45c0-1.298,0.443-2.366,1.325-3.197c0.883-0.829,2.16-1.313,3.829-1.45v-1.203
			c0-0.634,0.252-0.949,0.763-0.949C36.289,17.275,36.547,17.584,36.547,18.203z M35.01,25.979v-4.341
			c-0.677,0.188-1.207,0.438-1.586,0.748c-0.377,0.309-0.568,0.778-0.568,1.406c0,0.596,0.18,1.047,0.532,1.353
			C33.745,25.453,34.282,25.73,35.01,25.979z M36.547,29.346v4.966c0.814-0.152,1.442-0.458,1.888-0.919
			c0.443-0.46,0.665-0.997,0.665-1.609c0-0.657-0.216-1.167-0.648-1.524C38.02,29.9,37.383,29.595,36.547,29.346z"/>
	</g>
</g>
<g id="레이어_3" display="none">
	<path display="inline" fill="#005A99" d="M85.65,79.893c-0.437,0-0.836-0.287-0.963-0.728c-0.15-0.531,0.158-1.085,0.688-1.235
		c1.929-0.55,4.672-3.035,4.164-4.835c-0.149-0.53,0.16-1.084,0.69-1.233c0.535-0.146,1.084,0.158,1.234,0.69
		c0.898,3.185-2.74,6.503-5.543,7.302C85.833,79.879,85.74,79.893,85.65,79.893z"/>
	<path display="inline" fill="#005A99" d="M89.521,84.08c-0.429,0-0.822-0.275-0.955-0.705c-0.164-0.527,0.132-1.088,0.658-1.25
		c1.065-0.33,6.342-2.188,5.549-6.363c-0.103-0.543,0.254-1.066,0.797-1.17c0.545-0.105,1.065,0.254,1.169,0.797
		c0.86,4.533-3.191,7.491-6.923,8.646C89.719,84.064,89.619,84.08,89.521,84.08z"/>
	<path display="inline" fill="#005999" d="M77.127,76.996H18.045c-7.169,0-13.001-5.832-13.001-13V29.515
		c0-7.168,5.833-13,13.001-13h59.082c7.168,0,13.001,5.832,13.001,13v34.481C90.128,71.164,84.295,76.996,77.127,76.996z
		 M18.045,20.515c-4.963,0-9.001,4.038-9.001,9v34.481c0,4.963,4.038,9,9.001,9h59.082c4.963,0,9.001-4.037,9.001-9V29.515
		c0-4.963-4.038-9-9.001-9H18.045z"/>
	<rect x="7.389" y="31.682" display="inline" fill="#005999" width="80.392" height="10.741"/>
	<rect x="14.056" y="48.389" display="inline" fill="#005999" width="26.278" height="5.712"/>
	<polygon display="inline" fill="#005999" points="81.632,48.429 74.025,48.429 74.025,45.203 67.075,50.693 74.025,56.184 
		74.025,52.958 81.632,52.958 	"/>
</g>
<g id="레이어_4" display="none">
	<path display="inline" fill="#005A99" d="M31.296,94.839c-0.476,0-0.947-0.217-1.253-0.626l-9.268-12.416
		c-0.25-0.335-0.355-0.756-0.293-1.168c0.063-0.412,0.288-0.783,0.625-1.029l2.299-1.674c0.692-0.504,1.66-0.355,2.171,0.329
		l9.266,12.415c0.25,0.334,0.356,0.755,0.293,1.167c-0.062,0.414-0.288,0.784-0.625,1.029l-2.298,1.674
		C31.938,94.743,31.616,94.839,31.296,94.839z"/>
	<path display="inline" fill="#005A99" d="M38.36,93.121c-1.663,0-4.071-0.307-6.099-1.764c-0.125-0.09-0.236-0.196-0.33-0.318
		l-7.05-9.207c-0.03-0.038-0.058-0.078-0.083-0.12c-1.113-1.774-1.603-5.256,1.612-7.565l5.332-3.83
		c0.435-0.353,2.896-2.202,6.407-2.202c1.873,0,3.718,0.521,5.488,1.549l14.442,5.147c0.254,0.095,1.657,0.642,2.682,1.692
		l7.604-7.313c0.444-0.52,2.513-2.748,5.276-2.748c0.989,0,1.937,0.287,2.81,0.853c1.208,0.779,1.985,1.862,2.25,3.127
		c0.469,2.244-0.812,4.259-0.958,4.479c-0.055,0.08-0.115,0.156-0.184,0.227L65.215,87.785c-0.515,0.699-2.552,3.002-7.352,2.808
		l-18.267,2.462C39.541,93.061,39.071,93.121,38.36,93.121z M34.262,88.941c1.399,0.914,3.153,1.055,4.098,1.055
		c0.503,0,0.826-0.04,0.829-0.04l18.396-2.479c0.097-0.014,0.194-0.015,0.288-0.013c3.554,0.185,4.784-1.476,4.832-1.543
		c0.059-0.093,0.105-0.149,0.186-0.229l12.313-12.627c0.355-0.598,1.07-2.166-0.45-3.148c-0.364-0.236-0.729-0.354-1.112-0.354
		c-1.252,0-2.539,1.22-2.93,1.687c-0.037,0.045-0.081,0.094-0.122,0.134l-9.202,8.854c-0.467,0.447-1.158,0.563-1.744,0.289
		c-0.584-0.271-0.94-0.875-0.896-1.521c0.014-0.222-0.792-0.901-1.737-1.26l-14.561-5.188c-0.096-0.037-0.188-0.078-0.276-0.132
		c-1.319-0.789-2.672-1.188-4.022-1.188c-2.606,0-4.428,1.498-4.446,1.513c-0.029,0.024-0.067,0.054-0.098,0.076l-5.372,3.856
		c-1.748,1.258-1.11,2.799-0.813,3.327L34.262,88.941z"/>
	<path display="inline" fill="#005999" d="M50.097,65.04c-13.042,0-21.805-5.851-21.805-14.554c0-5,2.904-10.159,8.397-14.917
		l0.981-0.851c4.842-4.206,8.667-7.527,12.422-7.934c0.235-0.025,0.475-0.038,0.717-0.038c4.381,0,9.287,4.191,14.346,8.861
		c6.654,6.142,8.683,9.672,8.683,15.107C73.837,60.119,61.895,65.04,50.097,65.04z M50.811,30.318c-0.112,0-0.225,0.006-0.333,0.018
		c-2.641,0.286-6.266,3.434-10.462,7.079l-0.985,0.854c-4.62,4.002-7.165,8.341-7.165,12.217c0,6.569,7.327,10.981,18.232,10.981
		c9.777,0,20.167-3.77,20.167-10.754c0-3.898-1.047-6.495-7.531-12.481C59.525,35.272,54.156,30.318,50.811,30.318z"/>
	<g display="inline">
		<path fill="#005999" d="M55.325,30.611H45.191c-0.74,0-1.34-0.6-1.34-1.34s0.6-1.34,1.34-1.34h10.134c0.739,0,1.34,0.6,1.34,1.34
			S56.064,30.611,55.325,30.611z"/>
		<path fill="#005999" d="M55.325,28.879H45.191c-0.74,0-1.34-0.6-1.34-1.34c0-0.74,0.6-1.34,1.34-1.34h10.134
			c0.739,0,1.34,0.6,1.34,1.34C56.665,28.279,56.064,28.879,55.325,28.879z"/>
		<path fill="#005999" d="M55.325,27.146H45.191c-0.74,0-1.34-0.6-1.34-1.34c0-0.74,0.6-1.34,1.34-1.34h10.134
			c0.739,0,1.34,0.6,1.34,1.34C56.665,26.546,56.064,27.146,55.325,27.146z"/>
	</g>
	<g display="inline">
		<path fill="#005999" d="M46.549,26.702c-0.37-1.159-1.412-2.025-2.618-3.028c-1.006-0.835-2.145-1.783-2.99-3.042
			c-0.862-1.285-2.636-3.931-0.268-6.156c1.287-1.209,2.834-1.11,3.969-1.036c0.469,0.031,0.955,0.063,1.213-0.02
			c0.387-0.123,0.696-0.562,1.161-1.27c0.766-1.167,2.361-3.597,5.748-1.882c1.217,0.615,1.75,1.516,2.139,2.174
			c0.193,0.325,0.337,0.568,0.539,0.766c0.25-0.016,0.795-0.204,1.133-0.321c1.01-0.35,2.265-0.785,3.559-0.311
			c1.59,0.583,2.52,1.471,2.758,2.636c0.383,1.862-1.176,3.332-2.427,4.513c-0.196,0.185-0.391,0.369-0.571,0.549
			c-0.563,0.557-1.22,1.076-1.914,1.625c-1.482,1.173-3.164,2.503-3.174,3.771l-3.574-0.029c0.024-2.979,2.523-4.956,4.531-6.544
			c0.614-0.486,1.195-0.945,1.615-1.361c0.202-0.2,0.417-0.403,0.635-0.608c0.325-0.308,0.803-0.757,1.106-1.113
			c-0.063-0.027-0.136-0.056-0.216-0.085c-0.159-0.027-0.786,0.203-1.159,0.332c-1.202,0.417-3.022,1.05-4.571-0.291
			c-0.682-0.589-1.05-1.211-1.345-1.711c-0.315-0.535-0.417-0.673-0.675-0.804c-0.391-0.197-0.555-0.2-0.564-0.2l0,0
			c-0.068,0.068-0.378,0.541-0.583,0.853c-0.609,0.929-1.444,2.201-3.067,2.716c-0.899,0.285-1.762,0.229-2.527,0.18
			c-0.53-0.036-1.134-0.074-1.291,0.073c-0.049,0.046-0.064,0.072-0.064,0.072c0.012,0.235,0.554,1.043,0.844,1.477
			c0.567,0.845,1.417,1.551,2.315,2.298c1.43,1.188,3.049,2.535,3.738,4.688L46.549,26.702z"/>
		<path fill="#005999" d="M50.634,28.25c-0.602,0-1.137-0.404-1.294-0.998c-0.73-2.764-2.247-7.119-3.333-8.147
			c-0.538-0.509-0.561-1.357-0.052-1.894c0.509-0.537,1.356-0.56,1.894-0.051c0.892,0.845,1.727,2.531,2.409,4.257
			c0.502-1.544,1.266-3.069,2.419-4.054c0.565-0.48,1.409-0.412,1.89,0.15c0.479,0.563,0.412,1.409-0.149,1.889
			c-1.799,1.533-2.381,6.089-2.442,7.564c-0.027,0.662-0.535,1.204-1.195,1.275C50.73,28.248,50.682,28.25,50.634,28.25z"/>
	</g>
	<g display="inline">
		<path fill="#005999" d="M49.975,53.336v-5.272c-1.971-0.469-3.417-1.18-4.338-2.133c-0.919-0.952-1.38-2.106-1.38-3.466
			c0-1.376,0.52-2.531,1.563-3.467c1.04-0.934,2.426-1.473,4.156-1.616v-1.246h2.188v1.246c1.6,0.16,2.871,0.615,3.816,1.366
			c0.945,0.75,1.551,1.754,1.812,3.013l-3.815,0.415c-0.233-0.989-0.836-1.662-1.813-2.013v4.919
			c2.414,0.545,4.061,1.252,4.934,2.121c0.877,0.869,1.313,1.981,1.313,3.34c0,1.52-0.55,2.797-1.652,3.838
			c-1.102,1.041-2.633,1.68-4.594,1.913v2.353h-2.188v-2.289c-1.741-0.176-3.152-0.717-4.24-1.625
			c-1.087-0.902-1.779-2.185-2.082-3.836l3.938-0.353c0.162,0.672,0.462,1.251,0.906,1.735
			C48.938,52.766,49.433,53.117,49.975,53.336z M49.975,40.125c-0.593,0.167-1.065,0.453-1.418,0.856
			c-0.352,0.403-0.528,0.847-0.528,1.333c0,0.444,0.161,0.857,0.483,1.239c0.321,0.382,0.809,0.689,1.463,0.924V40.125z
			 M52.163,53.512c0.753-0.115,1.366-0.408,1.841-0.873c0.473-0.467,0.708-1.014,0.708-1.644c0-0.561-0.198-1.046-0.595-1.452
			c-0.398-0.408-1.049-0.72-1.954-0.938V53.512z"/>
	</g>
	<path display="inline" fill="#005999" d="M86.993,43.375c0,0-0.073-7.628-1.761-9.094c-1.137-0.988-4.573-1.539-4.573-1.539
		s2.96,0.145,4.72-1.836c1.414-1.589,1.497-6.453,1.497-6.453s0.451,5.383,1.806,6.673c1.352,1.291,4.414,1.616,4.414,1.616
		s-2.191-0.056-4.414,2.051C87.286,36.115,86.993,43.375,86.993,43.375z"/>
	<path display="inline" fill="#005999" d="M30.195,40.052c0,0-0.073-7.627-1.76-9.094c-1.138-0.988-4.575-1.538-4.575-1.538
		s2.961,0.145,4.722-1.836c1.413-1.589,1.497-6.454,1.497-6.454s0.45,5.383,1.803,6.674c1.352,1.291,4.414,1.616,4.414,1.616
		s-2.191-0.056-4.414,2.051C30.488,32.792,30.195,40.052,30.195,40.052z"/>
	<path display="inline" fill="#005999" d="M13.543,60.075c0,0-0.083-8.659-1.999-10.325c-1.291-1.121-5.193-1.746-5.193-1.746
		s3.36,0.164,5.36-2.085c1.605-1.805,1.7-7.327,1.7-7.327s0.511,6.112,2.046,7.578c1.535,1.465,5.013,1.834,5.013,1.834
		s-2.488-0.064-5.013,2.329C13.876,51.832,13.543,60.075,13.543,60.075z"/>
	<path display="inline" fill="#005999" d="M18.039,24.455c0,0-0.054-5.572-1.286-6.643c-0.83-0.721-3.341-1.123-3.341-1.123
		s2.162,0.105,3.449-1.341c1.032-1.161,1.092-4.713,1.092-4.713s0.33,3.931,1.318,4.875c0.988,0.942,3.224,1.18,3.224,1.18
		s-1.599-0.042-3.224,1.498C18.253,19.15,18.039,24.455,18.039,24.455z"/>
	<path display="inline" fill="#005999" d="M72.136,18.38c0,0-0.054-5.571-1.284-6.642c-0.83-0.722-3.343-1.124-3.343-1.124
		s2.163,0.105,3.448-1.341c1.031-1.161,1.094-4.713,1.094-4.713s0.329,3.932,1.316,4.874c0.988,0.943,3.226,1.18,3.226,1.18
		s-1.6-0.041-3.226,1.498C72.35,13.077,72.136,18.38,72.136,18.38z"/>
</g>
<g id="레이어_5" display="none">
	<path display="inline" fill="#005A99" d="M95.141,71.878h-6.406c0.031-0.223,0.067-0.444,0.067-0.675V25.748
		c0-2.577-2.108-4.686-4.688-4.686H16.286c-2.579,0-4.686,2.109-4.686,4.686v45.456c0,0.229,0.036,0.452,0.068,0.675H4.495
		c-1.098,0-1.998,0.896-1.998,1.995v3.996c0,1.099,0.9,2,1.998,2h90.646c1.099,0,1.996-0.901,1.996-2v-3.996
		C97.137,72.775,96.238,71.878,95.141,71.878z M15.271,27.629c0-2.082,1.901-3.785,4.226-3.785H80.65
		c2.326,0,4.229,1.703,4.229,3.785v36.715c0,2.081-1.902,3.784-4.229,3.784H19.497c-2.324,0-4.226-1.703-4.226-3.784V27.629z"/>
	<path display="inline" fill="#FFFFFF" d="M19.497,68.128H80.65c2.326,0,4.229-1.703,4.229-3.784V27.629
		c0-2.082-1.902-3.785-4.229-3.785H19.497c-2.324,0-4.226,1.703-4.226,3.785v36.715C15.271,66.425,17.173,68.128,19.497,68.128z"/>
	<path display="inline" fill="#FFFFFF" d="M47.951,55.795l-5.048-5.126c1.022-1.216,1.701-2.73,1.876-4.4l7.2,0.135
		C51.91,50.081,50.387,53.396,47.951,55.795z"/>
	<path display="inline" fill="#FFFFFF" d="M37.718,31.801c7.472,0.06,13.48,6.16,13.425,13.633c0,0.048-0.006,0.098-0.006,0.145
		l-6.312-0.118c0-0.019,0.002-0.041,0.002-0.058c0-4.167-3.122-7.602-7.152-8.107L37.718,31.801z"/>
	<path display="inline" fill="#FFFFFF" d="M35.826,32.051l-0.038,5.225c-4.106,0.431-7.307,3.905-7.307,8.127
		c0,4.514,3.657,8.173,8.17,8.173c1.953,0,3.744-0.686,5.15-1.827l3.417,3.472c-2.468,2.428-5.861,3.913-9.596,3.889
		c-7.473-0.058-13.483-6.164-13.428-13.633C22.253,38.006,28.357,31.993,35.826,32.051z"/>
	<path display="inline" fill="#005A99" d="M35.622,59.107c3.735,0.025,7.128-1.461,9.596-3.888l-3.417-3.472
		c-1.406,1.143-3.197,1.827-5.15,1.827c-4.513,0-8.17-3.66-8.17-8.173c0-4.222,3.201-7.696,7.307-8.127l0.038-5.225
		c-7.468-0.058-13.572,5.955-13.631,13.425C22.139,52.945,28.149,59.052,35.622,59.107z"/>
	<path display="inline" fill="#005A99" d="M44.827,45.403c0,0.018-0.002,0.04-0.002,0.058l6.312,0.118
		c0-0.047,0.006-0.097,0.006-0.145c0.057-7.473-5.953-13.573-13.425-13.633l-0.043,5.495C41.705,37.801,44.827,41.235,44.827,45.403
		z"/>
	<path display="inline" fill="#005A99" d="M42.903,50.668l5.048,5.126c2.436-2.397,3.959-5.714,4.027-9.392l-7.2-0.135
		C44.604,47.938,43.925,49.453,42.903,50.668z"/>
	<path display="inline" fill="#005A99" d="M78.523,36.052H59.468c-0.616,0-1.116-0.5-1.116-1.117c0-0.617,0.5-1.117,1.116-1.117
		h19.058c0.617,0,1.115,0.5,1.115,1.117C79.641,35.552,79.143,36.052,78.523,36.052z"/>
	<path display="inline" fill="#005A99" d="M78.523,44.513H59.468c-0.616,0-1.116-0.5-1.116-1.117s0.5-1.118,1.116-1.118h19.058
		c0.617,0,1.115,0.501,1.115,1.118S79.143,44.513,78.523,44.513z"/>
	<path display="inline" fill="#005A99" d="M78.523,52.975H59.468c-0.616,0-1.116-0.5-1.116-1.117c0-0.616,0.5-1.117,1.116-1.117
		h19.058c0.617,0,1.115,0.5,1.115,1.117S79.143,52.975,78.523,52.975z"/>
</g>
<g id="레이어_6" display="none">
	<path display="inline" fill="#005999" d="M83.451,98.751c0,0-0.096-9.731-2.245-11.604c-1.45-1.26-5.836-1.961-5.836-1.961
		s3.774,0.185,6.022-2.344c1.803-2.029,1.91-8.234,1.91-8.234s0.573,6.869,2.301,8.516c1.726,1.646,5.633,2.063,5.633,2.063
		s-2.795-0.07-5.633,2.617C83.825,89.486,83.451,98.751,83.451,98.751z"/>
	<path display="inline" fill="#005999" d="M19.316,20.664c0,0-0.069-7.123-1.644-8.493c-1.062-0.923-4.272-1.436-4.272-1.436
		s2.764,0.135,4.409-1.714c1.319-1.485,1.397-6.028,1.397-6.028s0.421,5.028,1.684,6.233c1.263,1.205,4.124,1.509,4.124,1.509
		s-2.046-0.053-4.124,1.916C19.59,13.883,19.316,20.664,19.316,20.664z"/>
	<path display="inline" fill="#005999" d="M8.306,38.335c0,0-0.069-7.124-1.644-8.494C5.6,28.92,2.39,28.405,2.39,28.405
		s2.765,0.136,4.41-1.715c1.319-1.484,1.398-6.027,1.398-6.027s0.421,5.028,1.684,6.233c1.262,1.206,4.123,1.509,4.123,1.509
		s-2.046-0.052-4.123,1.915C8.58,31.554,8.306,38.335,8.306,38.335z"/>
	<path display="inline" fill="#005A99" d="M53.282,87.125c-0.146,0-0.289-0.021-0.429-0.064
		C19.143,76.719,19.42,60.434,19.839,35.785c0.049-2.901,0.1-5.901,0.1-9.043c0-0.536,0.359-1.014,0.899-1.198
		C28.022,23.1,34.6,20.147,40.96,17.292c3.815-1.713,7.76-3.484,11.774-5.117c0.351-0.143,0.746-0.142,1.096,0
		c4.014,1.633,7.959,3.404,11.773,5.117c6.36,2.855,12.938,5.808,20.123,8.252c0.539,0.185,0.897,0.662,0.897,1.198
		c0,3.142,0.052,6.142,0.101,9.045c0.42,24.646,0.696,40.932-33.015,51.273C53.572,87.104,53.427,87.125,53.282,87.125z
		 M22.675,27.631c-0.008,2.839-0.054,5.557-0.099,8.194c-0.413,24.247-0.661,38.925,30.706,48.681
		C84.65,74.75,84.4,60.072,83.988,35.827c-0.045-2.637-0.092-5.357-0.1-8.196c-6.959-2.423-13.316-5.277-19.474-8.042
		c-3.618-1.625-7.354-3.302-11.134-4.854c-3.78,1.551-7.516,3.229-11.134,4.854C35.992,22.354,29.633,25.208,22.675,27.631z
		 M53.282,81.046c-0.156,0-0.312-0.024-0.462-0.073C36.819,75.648,32.082,69.441,29.744,64.63
		c-3.578-7.36-3.417-16.804-3.212-28.763l0.005-0.314c0.027-1.643,0.055-3.317,0.073-5.036c0.006-0.517,0.345-0.979,0.859-1.171
		c5.873-2.198,11.325-4.646,16.596-7.012c2.975-1.336,5.765-2.588,8.65-3.813c0.359-0.155,0.775-0.155,1.135,0
		c2.885,1.225,5.674,2.477,8.629,3.803c5.293,2.377,10.744,4.825,16.617,7.023c0.516,0.192,0.854,0.654,0.859,1.171
		c0.018,1.717,0.045,3.389,0.072,5.03l0.006,0.322c0.203,11.958,0.365,21.401-3.213,28.762c-2.338,4.813-7.075,11.021-23.077,16.343
		C53.594,81.021,53.438,81.046,53.282,81.046z M29.337,31.392c-0.018,1.427-0.041,2.826-0.064,4.201l-0.005,0.314
		c-0.199,11.639-0.355,20.831,2.968,27.671c2.094,4.309,6.382,9.875,21.045,14.837c14.662-4.961,18.951-10.528,21.046-14.837
		c3.323-6.839,3.167-16.031,2.968-27.67l-0.005-0.323c-0.022-1.373-0.047-2.768-0.063-4.194c-5.633-2.145-10.856-4.49-15.916-6.761
		c-2.766-1.241-5.369-2.41-8.028-3.549c-2.659,1.139-5.263,2.307-8.007,3.539C40.195,26.902,34.97,29.247,29.337,31.392z"/>
	<path display="inline" fill="#005A99" d="M53.372,21.842c-0.03-0.013-0.06-0.026-0.09-0.039c-2.485,1.069-4.95,2.177-7.544,3.341
		l-0.035,0.014c-4.935,2.216-10.025,4.501-15.508,6.607c-0.019,1.41-0.042,2.792-0.065,4.151
		c-0.092,5.452-0.171,10.358,0.108,14.734h23.134V21.842z"/>
	<path display="inline" fill="#005A99" d="M53.372,77.699c14.004-4.821,18.125-10.172,20.142-14.32
		c1.731-3.563,2.5-7.813,2.813-12.729H53.372V77.699z"/>
</g>
<g id="레이어_7" display="none">
	<polygon display="inline" fill="#005A99" points="52.311,78.852 45.403,78.852 47.974,27.912 49.736,27.912 	"/>
	<path display="inline" fill="#005A99" d="M75.77,83.883c0,0.883-0.935,1.602-2.09,1.602H23.463c-1.158,0-2.093-0.719-2.093-1.602
		V81.48c0-0.886,0.935-1.604,2.093-1.604H73.68c1.155,0,2.09,0.72,2.09,1.604V83.883z"/>
	<rect x="18.869" y="20.936" display="inline" fill="#005A99" width="61.111" height="3.666"/>
	<path display="inline" fill="#005A99" d="M2.818,53.614c-0.006,0.159-0.016,0.317-0.016,0.478c0,8.03,7.814,14.538,17.45,14.538
		c9.639,0,17.45-6.508,17.45-14.538c0-0.16-0.008-0.318-0.014-0.478H2.818z"/>
	<path display="inline" fill="#005A99" d="M19.563,25.007L4.092,55.514l1.654,0.838c0,0,13.123-25.876,14.628-28.846
		c1.462,2.99,14.159,28.946,14.159,28.946l1.667-0.816l-15.794-32.29L19.563,25.007z"/>
	<polygon display="inline" fill="#005A99" points="34.117,57.668 20.359,29.542 6.146,57.572 2.872,55.914 20.42,21.309 
		37.414,56.055 	"/>
	<path display="inline" fill="#005A99" d="M61.393,53.614c-0.008,0.159-0.016,0.317-0.016,0.478c0,8.03,7.813,14.538,17.448,14.538
		s17.448-6.508,17.448-14.538c0-0.16-0.008-0.318-0.015-0.478H61.393z"/>
	<path display="inline" fill="#005A99" d="M78.089,25.007L62.621,55.514l1.654,0.838c0,0,13.119-25.875,14.627-28.846
		c1.461,2.99,14.158,28.946,14.158,28.946l1.666-0.816L78.93,23.346L78.089,25.007z"/>
	<path display="inline" fill="#005A99" d="M92.645,57.668l-0.399-0.816c0,0-10.179-20.806-13.358-27.309
		c-3.279,6.469-13.801,27.221-13.801,27.221l-0.41,0.81L61.4,55.914l17.543-34.605l16.998,34.746L92.645,57.668z"/>
	<path display="inline" fill="#005A99" d="M52.682,26.265c0,0.912-1.06,1.647-2.369,1.647h-2.37c-1.309,0-2.37-0.736-2.37-1.647
		V17.93c0-0.912,1.061-1.649,2.37-1.649h2.37c1.31,0,2.369,0.737,2.369,1.649V26.265z"/>
</g>
<g id="레이어_8" display="none">
	<path display="inline" fill="#005A99" d="M15.4,20.222c0.447,0.03,0.875,0.258,1.146,0.658c0.463,0.688,0.281,1.619-0.406,2.083
		c-1.284,0.864-4.284,3.19-4.395,6.094c-0.031,0.828-0.729,1.474-1.556,1.442c-0.821-0.039-1.474-0.729-1.442-1.557
		c0.164-4.276,4.052-7.347,5.716-8.468C14.75,20.28,15.08,20.2,15.4,20.222z"/>
	<path display="inline" fill="#005A99" d="M13.714,15.028c0.47,0.031,0.919,0.282,1.183,0.717c0.432,0.706,0.208,1.629-0.5,2.061
		l-0.398,0.243c-4.83,2.938-8.719,5.688-7.358,9.616c0.271,0.782-0.143,1.638-0.926,1.908c-0.782,0.273-1.638-0.144-1.908-0.926
		C1.541,22.113,8.1,18.125,12.439,15.485l0.396-0.242C13.11,15.078,13.416,15.008,13.714,15.028z"/>
	<path display="inline" fill="#005A99" d="M85.029,88.784c-0.346,0-0.686-0.065-1.008-0.195l-11.608-4.687
		c-4.265,1.899-8.851,2.171-13.187,2.171c-1.055,0-2.117-0.017-3.184-0.032c-1.061-0.018-2.124-0.033-3.189-0.033
		c-24.361,0-42.732-15.727-42.732-36.581c0-20.856,18.371-36.584,42.732-36.584c24.362,0,42.735,15.728,42.735,36.584
		c0,9.737-3.963,18.987-11.181,26.148l3.186,9.641c0.333,0.987,0.059,2.099-0.703,2.823C86.383,88.521,85.723,88.784,85.029,88.784z
		 M72.37,80.768c0.19,0,0.381,0.037,0.562,0.109l11.62,4.689l-3.286-9.942c-0.183-0.552-0.029-1.16,0.394-1.56
		c7.049-6.679,10.932-15.428,10.932-24.639c0-19.146-17.083-33.584-39.735-33.584c-22.651,0-39.732,14.438-39.732,33.584
		c0,19.145,17.081,33.581,39.732,33.581c1.082,0,2.162,0.017,3.236,0.033c1.051,0.017,2.098,0.032,3.137,0.032
		c4.838,0,8.813-0.366,12.486-2.154C71.92,80.818,72.146,80.768,72.37,80.768z"/>
	<polygon display="inline" fill="#005A99" points="62.924,30 52.973,30 64.021,49 52.973,68 62.924,68 73.973,49 	"/>
	<rect x="39" y="30" display="inline" fill="#005A99" width="7" height="38"/>
</g>
<g id="레이어_9" display="none">
	<path display="inline" fill="#005A99" d="M20.598,49.008L4.863,46.233c-1.836,11.898,1.09,23.474,7.399,32.744l13.088-9.164
		C21.385,63.895,19.521,56.561,20.598,49.008z"/>
	<path display="inline" fill="#005A99" d="M50.167,69.521c-9.11,0-16.522-7.412-16.522-16.521c0-9.11,7.412-16.522,16.522-16.522
		c9.11,0,16.522,7.412,16.522,16.522C66.689,62.109,59.277,69.521,50.167,69.521z M50.167,39.478
		c-7.456,0-13.522,6.066-13.522,13.522s6.066,13.521,13.522,13.521S63.689,60.456,63.689,53S57.623,39.478,50.167,39.478z"/>
	<circle display="inline" fill="#005A99" cx="50.167" cy="53" r="8.789"/>
	<polygon display="inline" fill="#005A99" points="47.026,45.482 59.424,27.747 56.77,49.223 	"/>
	<path display="inline" fill="#005A99" d="M80.023,53h15.978c0-12.032-4.649-22.969-12.233-31.145L72.465,33.156
		C77.163,38.432,80.023,45.38,80.023,53z"/>
	<path display="inline" fill="#005A99" d="M4.333,53h15.978c0-16.098,12.742-29.213,28.689-29.827V7.195
		C24.228,7.816,4.333,28.078,4.333,53z"/>
	<path display="inline" fill="#005A99" d="M70.354,31.025l11.301-11.301C73.855,12.341,63.477,7.664,52,7.211v15.994
		C59.064,23.635,65.459,26.525,70.354,31.025z"/>
</g>
<polygon fill="none" stroke="#FFFFFF" stroke-width="4" stroke-linecap="round" stroke-linejoin="round" stroke-miterlimit="10" points="
	28.301,93.189 17.838,79.172 20.433,77.283 30.896,91.3 "/>
<path fill="none" stroke="#FFFFFF" stroke-width="4" stroke-linecap="round" stroke-linejoin="round" stroke-miterlimit="10" d="
	M23.815,73.021l6.066-4.356c0,0,5.128-4.399,11.605-0.533l16.462,5.869c0,0,3.239,1.194,3.104,3.194l10.392-9.996
	c0,0,3.371-4.133,6.882-1.866c3.508,2.267,0.946,6.133,0.946,6.133L65.236,85.859c0,0-1.756,2.799-7.019,2.529l-20.781,2.799
	c0,0-4.047,0.535-7.018-1.6l-7.96-10.395C22.46,79.195,20.213,75.611,23.815,73.021z"/>
<path fill="#FFFFFF" d="M85.893,42.131c0,0-0.072-7.531-1.738-8.978c-1.123-0.976-4.516-1.519-4.516-1.519s2.92,0.143,4.659-1.813
	c1.396-1.568,1.478-6.371,1.478-6.371s0.447,5.315,1.781,6.588c1.334,1.275,4.358,1.596,4.358,1.596s-2.162-0.056-4.358,2.025
	C86.182,34.962,85.893,42.131,85.893,42.131z"/>
<path fill="#FFFFFF" d="M29.814,38.85c0,0-0.072-7.53-1.737-8.979c-1.123-0.976-4.516-1.518-4.516-1.518s2.923,0.142,4.661-1.813
	c1.396-1.569,1.479-6.371,1.479-6.371s0.444,5.314,1.779,6.589c1.336,1.274,4.358,1.596,4.358,1.596s-2.163-0.055-4.358,2.025
	C30.104,31.681,29.814,38.85,29.814,38.85z"/>
<path fill="#FFFFFF" d="M13.374,58.618c0,0-0.083-8.55-1.972-10.193c-1.274-1.107-5.127-1.724-5.127-1.724s3.318,0.162,5.291-2.059
	c1.585-1.782,1.679-7.234,1.679-7.234s0.504,6.036,2.021,7.482c1.515,1.446,4.949,1.811,4.949,1.811s-2.456-0.063-4.949,2.298
	C13.703,50.479,13.374,58.618,13.374,58.618z"/>
<path fill="#FFFFFF" d="M17.812,23.45c0,0-0.053-5.5-1.269-6.558c-0.819-0.712-3.298-1.108-3.298-1.108s2.135,0.103,3.405-1.325
	c1.019-1.146,1.078-4.653,1.078-4.653s0.326,3.881,1.302,4.812c0.975,0.931,3.183,1.166,3.183,1.166s-1.579-0.041-3.183,1.479
	C18.024,18.213,17.812,23.45,17.812,23.45z"/>
<path fill="#FFFFFF" d="M71.225,17.453c0,0-0.056-5.5-1.271-6.557c-0.817-0.713-3.299-1.11-3.299-1.11s2.136,0.105,3.406-1.324
	c1.019-1.146,1.076-4.653,1.076-4.653s0.326,3.882,1.303,4.812c0.976,0.932,3.186,1.166,3.186,1.166s-1.582-0.041-3.186,1.479
	C71.434,12.217,71.225,17.453,71.225,17.453z"/>
<circle fill="none" stroke="#FFFFFF" stroke-linecap="round" stroke-linejoin="round" stroke-miterlimit="10" cx="55.583" cy="43.952" r="13.19"/>
<circle fill="none" stroke="#FFFFFF" stroke-width="3" stroke-linecap="round" stroke-linejoin="round" stroke-miterlimit="10" cx="55.583" cy="43.952" r="17.384"/>
<g>
	<path fill="#FFFFFF" d="M54.675,49.061V44.53c-1.694-0.403-2.937-1.015-3.729-1.834c-0.788-0.818-1.186-1.81-1.186-2.978
		c0-1.183,0.448-2.177,1.344-2.981c0.895-0.803,2.084-1.266,3.571-1.39v-1.07h1.882v1.07c1.373,0.137,2.467,0.529,3.278,1.174
		c0.813,0.645,1.335,1.508,1.56,2.59l-3.281,0.356c-0.201-0.85-0.719-1.428-1.557-1.73v4.228c2.073,0.469,3.488,1.077,4.238,1.823
		c0.754,0.746,1.129,1.703,1.129,2.871c0,1.305-0.473,2.403-1.421,3.298c-0.946,0.895-2.262,1.443-3.946,1.646v2.021h-1.882v-1.969
		c-1.495-0.151-2.709-0.614-3.646-1.396c-0.933-0.777-1.527-1.878-1.788-3.299l3.386-0.302c0.139,0.577,0.396,1.075,0.779,1.493
		C53.785,48.572,54.209,48.874,54.675,49.061z M54.675,37.706c-0.51,0.145-0.916,0.391-1.218,0.736
		c-0.305,0.347-0.454,0.728-0.454,1.146c0,0.382,0.136,0.738,0.415,1.065c0.273,0.329,0.695,0.593,1.257,0.794V37.706z
		 M56.557,49.213c0.646-0.101,1.172-0.351,1.582-0.751c0.403-0.4,0.606-0.871,0.606-1.413c0-0.481-0.171-0.899-0.511-1.248
		c-0.342-0.351-0.902-0.618-1.678-0.806V49.213L56.557,49.213z"/>
</g>
</svg>
