<?xml version="1.0" encoding="utf-8"?>
<!-- Generator: Adobe Illustrator 16.0.0, SVG Export Plug-In . SVG Version: 6.00 Build 0)  -->
<!DOCTYPE svg PUBLIC "-//W3C//DTD SVG 1.1//EN" "http://www.w3.org/Graphics/SVG/1.1/DTD/svg11.dtd">
<svg version="1.1" id="레이어_1" xmlns="http://www.w3.org/2000/svg" xmlns:xlink="http://www.w3.org/1999/xlink" x="0px"
	 y="0px" width="50px" height="50px" viewBox="0 0 50 50" enable-background="new 0 0 50 50" xml:space="preserve">
<path fill="#384A68" d="M16.188,8.424l11.506,11.5c0.42-1.08,0.678-2.216,0.737-3.371c0.15-2.747-0.787-5.27-2.628-7.111
	l-5.62-5.619C16.386,0.024,9.59,0.638,5.375,4.857c-4.216,4.216-4.831,11.01-1.035,14.806l5.616,5.625
	c2.716,2.714,6.823,3.303,10.482,1.877L8.946,15.667c-1.504-1.51-0.953-4.501,0.893-6.35C11.682,7.475,14.679,6.918,16.188,8.424z
	 M45.458,29.095l-5.646-5.644c-1.849-1.853-4.378-2.793-7.132-2.651c-1.157,0.059-2.29,0.314-3.377,0.732l11.501,11.516
	c1.505,1.505,0.951,4.5-0.894,6.34c-1.844,1.853-4.84,2.405-6.346,0.897L22.06,28.79c-1.416,3.666-0.82,7.778,1.907,10.506
	l5.647,5.648c3.813,3.81,10.621,3.206,14.84-1.008C48.67,39.717,49.275,32.909,45.458,29.095z"/>
<path fill="#384A68" d="M33.915,29.241c0.472,0.475,0.695,1.134,0.644,1.861c-0.062,0.727-0.399,1.432-0.954,1.984
	c-1.144,1.146-2.867,1.283-3.842,0.309L16.523,20.155c-0.977-0.975-0.838-2.698,0.303-3.841c1.148-1.146,2.872-1.287,3.849-0.31
	L33.915,29.241z"/>
</svg>
