<?xml version="1.0" encoding="utf-8"?>
<!-- Generator: Adobe Illustrator 16.0.0, SVG Export Plug-In . SVG Version: 6.00 Build 0)  -->
<!DOCTYPE svg PUBLIC "-//W3C//DTD SVG 1.1//EN" "http://www.w3.org/Graphics/SVG/1.1/DTD/svg11.dtd">
<svg version="1.1" xmlns="http://www.w3.org/2000/svg" xmlns:xlink="http://www.w3.org/1999/xlink" x="0px" y="0px" width="100px"
	 height="100px" viewBox="0 0 100 100" enable-background="new 0 0 100 100" xml:space="preserve">
<g id="savings">
	<path fill="#FFFFFF" d="M34.957,78.123c-0.05,0-0.101-0.001-0.151-0.002c-2.107-0.081-3.94-1.818-5.453-5.167
		c-1.595-0.9-7.214-4.392-8.383-9.443h-2.317c-0.709,0-1.285-0.575-1.285-1.284V49.55c0-0.347,0.141-0.679,0.389-0.921
		c0.249-0.242,0.581-0.371,0.931-0.363l2.152,0.06c0.246-2.028,1.311-5.943,5.625-10.132c-0.56-2.125-1.328-6.399,1-7.938
		c1.868-1.234,4.75-0.169,9.042,3.353c0.71-0.188,1.947-0.49,3.563-0.791c0.696-0.128,1.368,0.329,1.499,1.027
		c0.13,0.698-0.33,1.368-1.027,1.499c-2.414,0.45-3.955,0.909-3.97,0.913c-0.416,0.125-0.866,0.031-1.198-0.249
		c-5.188-4.38-6.44-3.643-6.492-3.608c-0.652,0.431-0.526,3.258,0.261,5.816c0.146,0.475,0.005,0.99-0.361,1.325
		c-5.799,5.304-5.443,9.939-5.438,9.986c0.034,0.366-0.091,0.729-0.342,0.997c-0.251,0.269-0.61,0.414-0.973,0.406l-2.091-0.059
		v10.072h2.126c0.667,0,1.224,0.511,1.28,1.177c0.421,5.011,7.525,8.739,7.596,8.775c0.265,0.138,0.475,0.362,0.592,0.637
		c1.091,2.551,2.287,3.979,3.368,4.021c1.414,0.053,3.011-2.145,3.575-3.219c0.325-0.619,1.085-0.867,1.712-0.554
		c4.086,2.039,14.138,0.929,17.665,0.329c0.485-0.085,0.979,0.121,1.264,0.524c1.091,1.542,2.129,2.266,3.093,2.16
		c2.008-0.227,3.911-3.796,4.42-5.028c0.062-0.151,0.153-0.29,0.266-0.407c10.913-11.23,4.734-22.898,4.67-23.015
		c-0.019-0.034-0.036-0.07-0.051-0.106c-2.141-4.95-5.916-8.389-11.225-10.222c-0.67-0.231-1.025-0.963-0.794-1.633
		s0.962-1.027,1.634-0.795c6.004,2.074,10.285,5.974,12.725,11.592c0.529,1.039,6.593,13.735-4.948,25.795
		c-0.54,1.233-2.837,5.966-6.404,6.372c-1.775,0.203-3.452-0.667-4.994-2.583c-2.768,0.414-12.094,1.604-17.363-0.226
		C39.229,75.909,37.377,78.123,34.957,78.123z"/>
	<path fill="#FFFFFF" d="M42.688,39.381c-0.311,0-0.616-0.15-0.802-0.428c-1.143-1.709-1.747-3.705-1.747-5.771
		c0-5.735,4.667-10.402,10.402-10.402c5.736,0,10.403,4.667,10.403,10.402c0,1.767-0.451,3.512-1.303,5.045
		c-0.258,0.465-0.845,0.634-1.311,0.375c-0.465-0.259-0.632-0.845-0.374-1.31c0.694-1.248,1.061-2.669,1.061-4.109
		c0-4.673-3.802-8.475-8.476-8.475c-4.673,0-8.475,3.802-8.475,8.475c0,1.684,0.492,3.309,1.422,4.701
		c0.296,0.442,0.177,1.04-0.266,1.336C43.058,39.329,42.871,39.381,42.688,39.381z"/>
	<path fill="#FFFFFF" d="M44.558,37.416c-0.104,0-0.206-0.05-0.268-0.143c-0.804-1.205-1.229-2.609-1.229-4.061
		c0-4.036,3.284-7.32,7.32-7.32c4.036,0,7.319,3.284,7.319,7.32c0,1.243-0.317,2.47-0.916,3.549
		c-0.086,0.155-0.281,0.212-0.437,0.125c-0.155-0.086-0.211-0.282-0.125-0.437c0.547-0.984,0.836-2.104,0.836-3.238
		c0-3.682-2.996-6.678-6.677-6.678c-3.682,0-6.678,2.996-6.678,6.678c0,1.325,0.388,2.605,1.121,3.705
		c0.099,0.147,0.059,0.347-0.089,0.445C44.681,37.398,44.619,37.416,44.558,37.416z"/>
	<path fill="#FFFFFF" d="M50.798,28.192v0.606c0.425,0.042,0.789,0.124,1.094,0.247c0.304,0.124,0.569,0.311,0.795,0.561
		c0.18,0.19,0.317,0.386,0.416,0.589c0.096,0.202,0.146,0.387,0.146,0.555c0,0.187-0.074,0.348-0.219,0.485
		c-0.146,0.136-0.32,0.204-0.527,0.204c-0.39,0-0.643-0.198-0.757-0.594c-0.132-0.468-0.447-0.779-0.948-0.931v2.332
		c0.493,0.127,0.886,0.244,1.178,0.348c0.291,0.105,0.554,0.256,0.784,0.455c0.246,0.205,0.436,0.452,0.568,0.737
		c0.134,0.286,0.199,0.6,0.199,0.939c0,0.426-0.106,0.826-0.318,1.198c-0.214,0.372-0.524,0.675-0.938,0.911
		c-0.414,0.235-0.903,0.375-1.473,0.419v1.397c0,0.22-0.022,0.381-0.068,0.482c-0.046,0.101-0.146,0.151-0.301,0.151
		c-0.144,0-0.243-0.042-0.301-0.123c-0.058-0.082-0.087-0.209-0.087-0.381v-1.515c-0.464-0.049-0.872-0.151-1.218-0.308
		c-0.348-0.157-0.638-0.353-0.871-0.586c-0.232-0.234-0.404-0.477-0.515-0.729s-0.168-0.5-0.168-0.743
		c0-0.179,0.075-0.341,0.225-0.485c0.148-0.144,0.335-0.216,0.557-0.216c0.178,0,0.33,0.039,0.453,0.118
		c0.124,0.079,0.209,0.188,0.256,0.331c0.108,0.307,0.201,0.541,0.281,0.704c0.079,0.163,0.2,0.312,0.36,0.445
		c0.161,0.135,0.374,0.238,0.641,0.309v-2.607c-0.533-0.138-0.978-0.292-1.335-0.463c-0.357-0.17-0.648-0.412-0.871-0.726
		c-0.221-0.314-0.333-0.718-0.333-1.212c0-0.642,0.218-1.17,0.653-1.582c0.435-0.41,1.064-0.65,1.886-0.718v-0.595
		c0-0.314,0.125-0.47,0.376-0.47C50.671,27.733,50.798,27.886,50.798,28.192z M50.041,32.04v-2.148
		c-0.333,0.094-0.594,0.217-0.781,0.37c-0.186,0.153-0.28,0.385-0.28,0.696c0,0.295,0.088,0.519,0.262,0.669
		C49.418,31.78,49.683,31.917,50.041,32.04z M50.798,33.706v2.457c0.401-0.075,0.711-0.226,0.931-0.454
		c0.219-0.228,0.327-0.493,0.327-0.796c0-0.325-0.106-0.577-0.319-0.754C51.524,33.98,51.211,33.829,50.798,33.706z"/>
	<path fill="#FFFFFF" d="M60.337,40.919c-0.102,0-0.205-0.017-0.308-0.051c-8.379-2.823-18.133-0.104-18.231-0.075
		c-0.513,0.144-1.045-0.151-1.19-0.662c-0.146-0.511,0.149-1.044,0.661-1.191c0.421-0.121,10.417-2.917,19.377,0.102
		c0.504,0.17,0.774,0.716,0.604,1.22C61.115,40.665,60.739,40.919,60.337,40.919z"/>
	<path fill="#FFFFFF" d="M77.214,52.82c-1.857,0-3.601-0.605-4.654-2.021c-0.317-0.427-0.229-1.03,0.198-1.348
		c0.427-0.317,1.03-0.229,1.348,0.198c1.33,1.788,4.721,1.527,7.054,0.162c0.048-0.028,0.099-0.059,0.152-0.092
		c-1.866-0.498-2.365-1.803-2.497-2.472c-0.366-1.844,0.924-4.107,2.653-4.657c0.535-0.17,2.367-0.526,3.502,2.017
		c0.43,0.965,0.542,1.942,0.356,2.875c1.037-0.565,1.771-1.597,2.125-3.022c0.008-0.033,0.015-0.069,0.021-0.107
		c-1.148-0.337-2.217-1.029-2.741-1.834c-0.704-1.08-0.477-2.29,0.593-3.156c1.154-0.934,2.089-0.519,2.437-0.298
		c0.96,0.611,1.416,2.153,1.58,3.535c0.058-0.017,0.11-0.037,0.159-0.062c1.966-1.008,2.141-3.887,2.073-6.282
		c-0.015-0.532,0.404-0.975,0.937-0.99c0.518-0.015,0.975,0.404,0.99,0.936c0.053,1.903,0.178,6.359-3.12,8.05
		c-0.303,0.155-0.642,0.25-0.997,0.293c-0.017,0.15-0.037,0.277-0.062,0.378c-0.698,2.813-2.582,4.594-5.192,4.928
		c-0.518,0.6-1.187,1.148-1.996,1.624C80.687,52.321,78.902,52.82,77.214,52.82z M82.235,44.397c-0.061,0-0.122,0.01-0.184,0.029
		c-0.737,0.234-1.538,1.487-1.348,2.447c0.188,0.949,1.414,1.133,2.393,1.118c0.406-0.706,0.568-1.579,0.113-2.6
		C82.915,44.73,82.588,44.397,82.235,44.397z M86.762,40.715c-0.04,0.017-0.114,0.055-0.225,0.145
		c-0.385,0.312-0.299,0.442-0.191,0.607c0.191,0.294,0.563,0.567,0.994,0.775C87.201,41.531,86.991,40.898,86.762,40.715z"/>
	<path fill="#FFFFFF" d="M73.984,71.042c-0.287,0-0.572-0.129-0.762-0.373c-0.326-0.421-0.249-1.025,0.171-1.352
		c0.786-0.609,2.608-2.229,2.557-4.094c-0.016-0.532,0.403-0.975,0.936-0.989c0.527-0.011,0.975,0.403,0.99,0.936
		c0.077,2.747-2.283,4.88-3.302,5.67C74.398,70.976,74.191,71.042,73.984,71.042z"/>
	<path fill="#FFFFFF" d="M75.287,74.298c-0.303,0-0.601-0.143-0.789-0.409c-0.306-0.435-0.202-1.035,0.232-1.342l0.245-0.172
		c2.971-2.09,5.345-4.018,4.305-6.477c-0.207-0.49,0.022-1.056,0.512-1.263c0.49-0.209,1.056,0.022,1.263,0.512
		c1.73,4.091-2.302,6.926-4.971,8.803l-0.243,0.172C75.673,74.24,75.479,74.298,75.287,74.298z"/>
	<path fill="#FFFFFF" d="M14.422,67.788c-0.053,0-0.105-0.004-0.159-0.013c-1.2-0.2-2.161-0.778-2.778-1.673
		c-0.677-0.98-0.895-2.295-0.613-3.698c0.105-0.522,0.612-0.859,1.134-0.756c0.521,0.105,0.86,0.612,0.755,1.134
		c-0.178,0.889-0.068,1.679,0.31,2.227c0.318,0.461,0.826,0.752,1.508,0.866c0.525,0.087,0.879,0.583,0.792,1.107
		C15.293,67.454,14.884,67.788,14.422,67.788z"/>
	<path fill="#FFFFFF" d="M14.096,71.042c-0.118,0-0.237-0.021-0.353-0.067c-2.16-0.852-6.457-3.783-7.089-7.012
		c-0.271-1.382,0.16-2.659,1.244-3.694c0.385-0.367,0.995-0.354,1.362,0.032c0.368,0.385,0.353,0.994-0.032,1.361
		c-0.61,0.582-0.827,1.196-0.684,1.931c0.454,2.32,4.085,4.872,5.905,5.59c0.495,0.195,0.738,0.755,0.543,1.249
		C14.842,70.811,14.479,71.042,14.096,71.042z"/>
	<circle fill="#FFFFFF" cx="31.232" cy="49.359" r="2.408"/>
</g>
<g id="레이어_2" display="none">
	<path display="inline" fill="#005A99" d="M78.113,91.717H23.694C18.9,91.717,15,87.946,15,83.313V12.765
		c0-4.635,3.9-8.406,8.694-8.406h54.419c4.794,0,8.693,3.771,8.693,8.406v70.547C86.807,87.946,82.907,91.717,78.113,91.717z
		 M23.694,8.359c-2.588,0-4.694,1.977-4.694,4.406v70.547c0,2.429,2.105,4.404,4.694,4.404h54.419c2.588,0,4.693-1.976,4.693-4.404
		V12.765c0-2.429-2.105-4.406-4.693-4.406H23.694z"/>
	<path display="inline" fill="#005A99" d="M71.473,52.375H28.542c-0.829,0-1.5-0.672-1.5-1.5s0.671-1.5,1.5-1.5h42.931
		c0.828,0,1.5,0.671,1.5,1.5S72.301,52.375,71.473,52.375z"/>
	<path display="inline" fill="#005A99" d="M71.03,40.693H50.008c-0.829,0-1.5-0.671-1.5-1.5s0.671-1.5,1.5-1.5H71.03
		c0.828,0,1.5,0.671,1.5,1.5S71.858,40.693,71.03,40.693z"/>
	<path display="inline" fill="#005A99" d="M71.03,31.135H50.008c-0.829,0-1.5-0.671-1.5-1.5s0.671-1.5,1.5-1.5H71.03
		c0.828,0,1.5,0.671,1.5,1.5S71.858,31.135,71.03,31.135z"/>
	<path display="inline" fill="#005A99" d="M71.473,62.938H28.542c-0.829,0-1.5-0.672-1.5-1.5s0.671-1.5,1.5-1.5h42.931
		c0.828,0,1.5,0.672,1.5,1.5S72.301,62.938,71.473,62.938z"/>
	<path display="inline" fill="#005A99" d="M71.473,73.5H28.542c-0.829,0-1.5-0.672-1.5-1.5s0.671-1.5,1.5-1.5h42.931
		c0.828,0,1.5,0.672,1.5,1.5S72.301,73.5,71.473,73.5z"/>
	<path display="inline" fill="#005A99" d="M13.595,93.783c-0.116,0-0.233-0.02-0.347-0.063c-3.103-1.148-3.641-6.045-2.636-8.778
		c0.19-0.52,0.765-0.785,1.283-0.594c0.519,0.19,0.784,0.765,0.594,1.283c-0.691,1.882-0.298,5.564,1.454,6.214
		c0.518,0.191,0.782,0.767,0.591,1.285C14.383,93.534,14.001,93.783,13.595,93.783z"/>
	<path display="inline" fill="#005A99" d="M7.802,96.51c-0.155,0-0.313-0.036-0.46-0.112C3.247,94.27,3.426,89.257,4.824,85.61
		c0.197-0.516,0.776-0.771,1.292-0.575c0.516,0.197,0.773,0.776,0.576,1.292c-0.399,1.041-2.2,6.336,1.572,8.295
		c0.49,0.255,0.681,0.858,0.426,1.349C8.512,96.313,8.163,96.51,7.802,96.51z"/>
	<g display="inline">
		<path fill="#005A99" d="M36.547,18.203v1.224c0.863,0.084,1.602,0.251,2.219,0.5c0.616,0.25,1.156,0.628,1.615,1.133
			c0.364,0.385,0.645,0.782,0.842,1.191c0.197,0.408,0.298,0.781,0.298,1.122c0,0.378-0.15,0.704-0.443,0.98
			c-0.295,0.275-0.651,0.413-1.07,0.413c-0.791,0-1.305-0.4-1.537-1.2c-0.266-0.945-0.908-1.574-1.923-1.883v4.714
			c0.999,0.258,1.796,0.492,2.389,0.704c0.592,0.212,1.123,0.518,1.591,0.918c0.499,0.416,0.883,0.913,1.153,1.49
			c0.272,0.578,0.406,1.211,0.406,1.899c0,0.861-0.218,1.668-0.648,2.421c-0.433,0.751-1.064,1.365-1.904,1.842
			c-0.839,0.476-1.833,0.757-2.988,0.848v2.825c0,0.445-0.046,0.771-0.139,0.975c-0.094,0.204-0.297,0.305-0.611,0.305
			c-0.292,0-0.494-0.083-0.611-0.25c-0.117-0.166-0.176-0.422-0.176-0.771v-3.061c-0.943-0.099-1.77-0.306-2.473-0.623
			c-0.706-0.317-1.295-0.713-1.767-1.186c-0.471-0.472-0.82-0.964-1.045-1.473c-0.227-0.511-0.341-1.01-0.341-1.502
			c0-0.363,0.153-0.69,0.456-0.98c0.301-0.291,0.68-0.437,1.13-0.437c0.362,0,0.67,0.079,0.919,0.238
			c0.25,0.159,0.424,0.381,0.519,0.669c0.219,0.619,0.409,1.093,0.57,1.422c0.161,0.328,0.405,0.63,0.731,0.899
			c0.326,0.273,0.759,0.481,1.301,0.624v-5.27c-1.082-0.279-1.984-0.591-2.71-0.935c-0.726-0.344-1.315-0.833-1.767-1.467
			c-0.449-0.635-0.677-1.452-0.677-2.45c0-1.298,0.443-2.366,1.325-3.197c0.883-0.829,2.16-1.313,3.829-1.45v-1.203
			c0-0.634,0.252-0.949,0.763-0.949C36.289,17.275,36.547,17.584,36.547,18.203z M35.01,25.979v-4.341
			c-0.677,0.188-1.207,0.438-1.586,0.748c-0.377,0.309-0.568,0.778-0.568,1.406c0,0.596,0.18,1.047,0.532,1.353
			C33.745,25.453,34.282,25.73,35.01,25.979z M36.547,29.346v4.966c0.814-0.152,1.442-0.458,1.888-0.919
			c0.443-0.46,0.665-0.997,0.665-1.609c0-0.657-0.216-1.167-0.648-1.524C38.02,29.9,37.383,29.595,36.547,29.346z"/>
	</g>
</g>
<g id="Card" display="none">
	<path display="inline" fill="#005A99" d="M85.65,79.892c-0.436,0-0.836-0.287-0.962-0.727c-0.151-0.531,0.157-1.085,0.688-1.235
		c1.928-0.55,4.672-3.036,4.164-4.835c-0.149-0.531,0.16-1.084,0.691-1.233c0.534-0.146,1.084,0.158,1.234,0.69
		c0.898,3.185-2.74,6.503-5.543,7.302C85.833,79.879,85.74,79.892,85.65,79.892z"/>
	<path display="inline" fill="#005A99" d="M89.521,84.08c-0.428,0-0.822-0.275-0.955-0.705c-0.164-0.527,0.132-1.088,0.659-1.25
		c1.065-0.33,6.341-2.188,5.549-6.363c-0.103-0.543,0.253-1.066,0.796-1.17c0.545-0.105,1.066,0.254,1.169,0.797
		c0.86,4.533-3.191,7.491-6.922,8.646C89.719,84.065,89.619,84.08,89.521,84.08z"/>
	<path display="inline" fill="#005999" d="M77.127,76.996H18.045c-7.169,0-13.001-5.832-13.001-13V29.515
		c0-7.168,5.833-13,13.001-13h59.082c7.168,0,13.001,5.832,13.001,13v34.481C90.128,71.164,84.295,76.996,77.127,76.996z
		 M18.045,20.515c-4.963,0-9.001,4.038-9.001,9v34.481c0,4.963,4.038,9,9.001,9h59.082c4.963,0,9.001-4.037,9.001-9V29.515
		c0-4.963-4.038-9-9.001-9H18.045z"/>
	<rect x="7.389" y="31.682" display="inline" fill="#005999" width="80.392" height="10.741"/>
	<rect x="14.056" y="48.389" display="inline" fill="#005999" width="26.278" height="5.712"/>
	<polygon display="inline" fill="#005999" points="81.632,48.429 74.025,48.429 74.025,45.203 67.075,50.693 74.025,56.183 
		74.025,52.958 81.632,52.958 	"/>
</g>
<g id="Loan" display="none">
	<path display="inline" fill="#005A99" d="M31.296,94.839c-0.476,0-0.947-0.217-1.253-0.626l-9.268-12.416
		c-0.25-0.335-0.355-0.756-0.293-1.168c0.063-0.412,0.288-0.783,0.625-1.029l2.299-1.674c0.692-0.504,1.66-0.355,2.171,0.329
		l9.266,12.415c0.25,0.334,0.356,0.755,0.293,1.167c-0.062,0.414-0.288,0.784-0.625,1.029l-2.298,1.674
		C31.938,94.743,31.616,94.839,31.296,94.839z"/>
	<path display="inline" fill="#005A99" d="M38.36,93.121c-1.663,0-4.071-0.306-6.099-1.763c-0.125-0.09-0.236-0.197-0.33-0.319
		l-7.05-9.207c-0.03-0.038-0.058-0.078-0.083-0.12c-1.113-1.775-1.603-5.256,1.612-7.566l5.332-3.829
		c0.435-0.353,2.896-2.203,6.407-2.203c1.873,0,3.718,0.521,5.488,1.549l14.442,5.148c0.254,0.094,1.657,0.641,2.682,1.692
		l7.603-7.313c0.445-0.52,2.513-2.748,5.277-2.748c0.989,0,1.936,0.286,2.809,0.852c1.208,0.779,1.985,1.862,2.25,3.127
		c0.469,2.244-0.811,4.258-0.958,4.479c-0.055,0.081-0.115,0.156-0.184,0.227L65.215,87.785c-0.515,0.699-2.552,3.002-7.352,2.808
		l-18.267,2.461C39.541,93.061,39.071,93.121,38.36,93.121z M34.262,88.941c1.399,0.914,3.153,1.055,4.098,1.055
		c0.503,0,0.826-0.04,0.829-0.04l18.396-2.479c0.096-0.014,0.194-0.015,0.288-0.013c3.554,0.184,4.784-1.476,4.832-1.543
		c0.059-0.093,0.106-0.149,0.185-0.229l12.313-12.628c0.355-0.597,1.071-2.166-0.45-3.148c-0.365-0.236-0.73-0.353-1.113-0.353
		c-1.252,0-2.538,1.219-2.929,1.686c-0.037,0.045-0.081,0.094-0.122,0.134l-9.203,8.854c-0.466,0.447-1.158,0.563-1.743,0.289
		c-0.585-0.272-0.941-0.876-0.897-1.521c0.014-0.222-0.792-0.902-1.737-1.26l-14.561-5.189c-0.096-0.036-0.188-0.078-0.276-0.131
		c-1.319-0.789-2.672-1.188-4.022-1.188c-2.606,0-4.428,1.497-4.446,1.512c-0.029,0.024-0.067,0.054-0.098,0.076l-5.372,3.857
		c-1.748,1.257-1.11,2.798-0.813,3.327L34.262,88.941z"/>
	<path display="inline" fill="#005999" d="M50.097,65.04c-13.042,0-21.805-5.85-21.805-14.554c0-5,2.904-10.159,8.397-14.917
		l0.981-0.851c4.842-4.206,8.667-7.527,12.422-7.934c0.235-0.025,0.475-0.038,0.717-0.038c4.381,0,9.286,4.191,14.346,8.861
		c6.653,6.142,8.682,9.672,8.682,15.107C73.837,60.119,61.895,65.04,50.097,65.04z M50.81,30.318c-0.112,0-0.224,0.006-0.333,0.018
		c-2.641,0.286-6.266,3.434-10.462,7.079l-0.985,0.854c-4.62,4.002-7.165,8.341-7.165,12.217c0,6.568,7.327,10.981,18.232,10.981
		c9.777,0,20.167-3.77,20.167-10.754c0-3.898-1.047-6.495-7.532-12.481C59.525,35.272,54.156,30.318,50.81,30.318z"/>
	<g display="inline">
		<path fill="#005999" d="M55.325,30.611H45.191c-0.74,0-1.34-0.6-1.34-1.34c0-0.74,0.6-1.34,1.34-1.34h10.134
			c0.74,0,1.34,0.6,1.34,1.34C56.665,30.011,56.065,30.611,55.325,30.611z"/>
		<path fill="#005999" d="M55.325,28.879H45.191c-0.74,0-1.34-0.6-1.34-1.34c0-0.74,0.6-1.34,1.34-1.34h10.134
			c0.74,0,1.34,0.6,1.34,1.34C56.665,28.279,56.065,28.879,55.325,28.879z"/>
		<path fill="#005999" d="M55.325,27.146H45.191c-0.74,0-1.34-0.6-1.34-1.34c0-0.74,0.6-1.34,1.34-1.34h10.134
			c0.74,0,1.34,0.6,1.34,1.34C56.665,26.546,56.065,27.146,55.325,27.146z"/>
	</g>
	<g display="inline">
		<path fill="#005999" d="M46.549,26.702c-0.37-1.159-1.412-2.025-2.618-3.028c-1.006-0.835-2.145-1.783-2.99-3.042
			c-0.862-1.285-2.636-3.931-0.268-6.156c1.287-1.209,2.834-1.11,3.969-1.036c0.469,0.031,0.955,0.063,1.213-0.02
			c0.387-0.123,0.696-0.562,1.161-1.27c0.766-1.167,2.361-3.597,5.748-1.882c1.217,0.615,1.749,1.516,2.138,2.174
			c0.193,0.325,0.337,0.568,0.54,0.766c0.25-0.016,0.794-0.204,1.132-0.321c1.01-0.35,2.265-0.785,3.559-0.311
			c1.59,0.583,2.519,1.471,2.758,2.636c0.382,1.862-1.176,3.332-2.427,4.513c-0.196,0.185-0.391,0.369-0.572,0.549
			c-0.563,0.557-1.219,1.076-1.913,1.625c-1.483,1.173-3.164,2.503-3.175,3.771l-3.573-0.029c0.024-2.979,2.523-4.956,4.531-6.544
			c0.614-0.486,1.195-0.945,1.615-1.361c0.202-0.2,0.417-0.403,0.635-0.608c0.325-0.308,0.802-0.757,1.106-1.113
			c-0.063-0.027-0.135-0.056-0.216-0.085c-0.159-0.027-0.786,0.203-1.159,0.332c-1.202,0.417-3.022,1.05-4.571-0.291
			c-0.682-0.589-1.05-1.211-1.345-1.711c-0.316-0.535-0.417-0.673-0.675-0.804c-0.39-0.197-0.555-0.2-0.564-0.2l0,0
			c-0.068,0.068-0.378,0.541-0.583,0.853c-0.609,0.929-1.444,2.201-3.067,2.716c-0.899,0.285-1.762,0.229-2.527,0.18
			c-0.53-0.036-1.134-0.074-1.291,0.073c-0.049,0.046-0.064,0.072-0.064,0.072c0.012,0.235,0.554,1.043,0.844,1.477
			c0.567,0.845,1.417,1.551,2.315,2.298c1.43,1.188,3.049,2.535,3.738,4.688L46.549,26.702z"/>
		<path fill="#005999" d="M50.634,28.25c-0.602,0-1.137-0.404-1.294-0.998c-0.73-2.764-2.247-7.119-3.333-8.147
			c-0.538-0.509-0.561-1.357-0.052-1.894c0.509-0.537,1.356-0.56,1.894-0.051c0.892,0.845,1.727,2.531,2.409,4.257
			c0.502-1.544,1.265-3.069,2.419-4.054c0.565-0.48,1.409-0.412,1.889,0.15c0.48,0.563,0.413,1.409-0.149,1.889
			c-1.799,1.533-2.381,6.089-2.442,7.564c-0.028,0.662-0.536,1.204-1.195,1.275C50.731,28.248,50.682,28.25,50.634,28.25z"/>
	</g>
	<g display="inline">
		<path fill="#005999" d="M49.975,53.336v-5.272c-1.971-0.469-3.417-1.18-4.338-2.133c-0.919-0.952-1.38-2.106-1.38-3.466
			c0-1.376,0.52-2.531,1.563-3.467c1.04-0.934,2.426-1.473,4.156-1.616v-1.246h2.188v1.246c1.599,0.16,2.871,0.615,3.817,1.366
			c0.945,0.75,1.55,1.754,1.811,3.013l-3.816,0.415c-0.233-0.989-0.836-1.662-1.812-2.013v4.919c2.414,0.545,4.06,1.252,4.934,2.121
			c0.876,0.869,1.313,1.981,1.313,3.34c0,1.519-0.55,2.797-1.652,3.838c-1.102,1.041-2.633,1.679-4.594,1.913v2.353h-2.188v-2.29
			c-1.741-0.176-3.152-0.717-4.24-1.624c-1.087-0.903-1.779-2.185-2.082-3.837l3.938-0.352c0.162,0.672,0.462,1.251,0.906,1.736
			C48.938,52.766,49.433,53.117,49.975,53.336z M49.975,40.125c-0.593,0.167-1.065,0.453-1.418,0.856
			c-0.352,0.403-0.528,0.847-0.528,1.333c0,0.444,0.161,0.857,0.483,1.239c0.321,0.382,0.809,0.689,1.463,0.924V40.125z
			 M52.163,53.512c0.753-0.116,1.367-0.408,1.841-0.874c0.472-0.466,0.708-1.013,0.708-1.643c0-0.561-0.198-1.046-0.595-1.452
			c-0.398-0.408-1.049-0.72-1.954-0.938V53.512z"/>
	</g>
	<path display="inline" fill="#005999" d="M86.993,43.375c0,0-0.073-7.628-1.76-9.094c-1.137-0.988-4.574-1.539-4.574-1.539
		s2.96,0.145,4.72-1.836c1.414-1.589,1.497-6.453,1.497-6.453s0.451,5.383,1.805,6.673c1.352,1.291,4.414,1.616,4.414,1.616
		s-2.19-0.056-4.414,2.051C87.286,36.115,86.993,43.375,86.993,43.375z"/>
	<path display="inline" fill="#005999" d="M30.195,40.052c0,0-0.073-7.627-1.76-9.094c-1.138-0.988-4.575-1.538-4.575-1.538
		s2.961,0.145,4.722-1.836c1.413-1.589,1.497-6.454,1.497-6.454s0.45,5.383,1.803,6.674c1.352,1.291,4.414,1.616,4.414,1.616
		s-2.191-0.056-4.414,2.051C30.488,32.792,30.195,40.052,30.195,40.052z"/>
	<path display="inline" fill="#005999" d="M13.543,60.075c0,0-0.083-8.659-1.999-10.325c-1.291-1.121-5.193-1.746-5.193-1.746
		s3.36,0.164,5.36-2.085c1.605-1.805,1.7-7.327,1.7-7.327s0.511,6.112,2.046,7.578c1.535,1.465,5.013,1.834,5.013,1.834
		s-2.488-0.064-5.013,2.329C13.876,51.832,13.543,60.075,13.543,60.075z"/>
	<path display="inline" fill="#005999" d="M18.039,24.455c0,0-0.054-5.572-1.286-6.643c-0.83-0.721-3.341-1.123-3.341-1.123
		s2.162,0.105,3.449-1.341c1.032-1.161,1.092-4.713,1.092-4.713s0.33,3.931,1.318,4.875c0.988,0.942,3.224,1.18,3.224,1.18
		s-1.599-0.042-3.224,1.498C18.253,19.15,18.039,24.455,18.039,24.455z"/>
	<path display="inline" fill="#005999" d="M72.136,18.38c0,0-0.054-5.571-1.285-6.642c-0.83-0.722-3.342-1.124-3.342-1.124
		s2.163,0.106,3.448-1.341c1.032-1.161,1.094-4.713,1.094-4.713s0.329,3.932,1.316,4.874c0.989,0.943,3.226,1.18,3.226,1.18
		s-1.6-0.041-3.226,1.498C72.35,13.077,72.136,18.38,72.136,18.38z"/>
</g>
<g id="Fund_management" display="none">
	<path display="inline" fill="#005A99" d="M95.14,71.878h-6.406c0.032-0.223,0.068-0.444,0.068-0.675V25.748
		c0-2.577-2.109-4.686-4.688-4.686H16.286c-2.579,0-4.686,2.109-4.686,4.686v45.456c0,0.23,0.036,0.452,0.068,0.675H4.495
		c-1.098,0-1.998,0.897-1.998,1.995v3.996c0,1.099,0.9,2,1.998,2H95.14c1.099,0,1.997-0.901,1.997-2v-3.996
		C97.137,72.775,96.238,71.878,95.14,71.878z M15.271,27.629c0-2.082,1.901-3.785,4.226-3.785h61.154
		c2.325,0,4.228,1.703,4.228,3.785v36.715c0,2.081-1.902,3.784-4.228,3.784H19.497c-2.324,0-4.226-1.703-4.226-3.784V27.629z"/>
	<path display="inline" fill="#FFFFFF" d="M19.497,68.128h61.154c2.325,0,4.228-1.703,4.228-3.784V27.629
		c0-2.082-1.902-3.785-4.228-3.785H19.497c-2.324,0-4.226,1.703-4.226,3.785v36.715C15.271,66.425,17.173,68.128,19.497,68.128z"/>
	<path display="inline" fill="#FFFFFF" d="M47.951,55.795l-5.048-5.126c1.022-1.216,1.701-2.73,1.876-4.4l7.199,0.135
		C51.91,50.081,50.387,53.396,47.951,55.795z"/>
	<path display="inline" fill="#FFFFFF" d="M37.718,31.801c7.472,0.06,13.48,6.16,13.425,13.633c0,0.048-0.007,0.098-0.007,0.145
		l-6.311-0.118c0-0.019,0.002-0.041,0.002-0.058c0-4.167-3.122-7.602-7.152-8.107L37.718,31.801z"/>
	<path display="inline" fill="#FFFFFF" d="M35.826,32.051l-0.038,5.225c-4.106,0.431-7.307,3.905-7.307,8.127
		c0,4.514,3.657,8.173,8.17,8.173c1.953,0,3.744-0.686,5.15-1.827l3.417,3.472c-2.468,2.427-5.861,3.913-9.596,3.888
		c-7.473-0.057-13.483-6.163-13.428-13.633C22.253,38.006,28.357,31.993,35.826,32.051z"/>
	<path display="inline" fill="#005A99" d="M35.622,59.108c3.735,0.025,7.128-1.461,9.596-3.888l-3.417-3.472
		c-1.406,1.142-3.197,1.827-5.15,1.827c-4.513,0-8.17-3.66-8.17-8.173c0-4.222,3.201-7.696,7.307-8.127l0.038-5.225
		c-7.468-0.058-13.572,5.955-13.631,13.425C22.139,52.945,28.149,59.052,35.622,59.108z"/>
	<path display="inline" fill="#005A99" d="M44.827,45.403c0,0.018-0.002,0.04-0.002,0.058l6.311,0.118
		c0-0.047,0.007-0.097,0.007-0.145c0.056-7.473-5.953-13.573-13.425-13.633l-0.043,5.495C41.705,37.801,44.827,41.235,44.827,45.403
		z"/>
	<path display="inline" fill="#005A99" d="M42.903,50.668l5.048,5.126c2.436-2.398,3.959-5.714,4.027-9.392l-7.199-0.135
		C44.604,47.938,43.925,49.453,42.903,50.668z"/>
	<path display="inline" fill="#005A99" d="M78.524,36.052H59.468c-0.616,0-1.116-0.5-1.116-1.117c0-0.617,0.5-1.117,1.116-1.117
		h19.057c0.618,0,1.116,0.5,1.116,1.117C79.641,35.552,79.143,36.052,78.524,36.052z"/>
	<path display="inline" fill="#005A99" d="M78.524,44.513H59.468c-0.616,0-1.116-0.5-1.116-1.117c0-0.617,0.5-1.118,1.116-1.118
		h19.057c0.618,0,1.116,0.501,1.116,1.118C79.641,44.013,79.143,44.513,78.524,44.513z"/>
	<path display="inline" fill="#005A99" d="M78.524,52.974H59.468c-0.616,0-1.116-0.5-1.116-1.116c0-0.617,0.5-1.118,1.116-1.118
		h19.057c0.618,0,1.116,0.5,1.116,1.118C79.641,52.474,79.143,52.974,78.524,52.974z"/>
</g>
<g id="레이어_6" display="none">
	<path display="inline" fill="#005999" d="M83.451,98.751c0,0-0.095-9.731-2.245-11.604c-1.45-1.26-5.836-1.962-5.836-1.962
		s3.775,0.185,6.022-2.343c1.804-2.029,1.911-8.234,1.911-8.234s0.573,6.869,2.301,8.515c1.725,1.647,5.633,2.063,5.633,2.063
		s-2.796-0.071-5.633,2.617C83.825,89.486,83.451,98.751,83.451,98.751z"/>
	<path display="inline" fill="#005999" d="M19.316,20.664c0,0-0.069-7.123-1.644-8.493c-1.062-0.923-4.272-1.436-4.272-1.436
		s2.764,0.135,4.409-1.714c1.319-1.485,1.397-6.028,1.397-6.028s0.421,5.028,1.684,6.233c1.263,1.205,4.124,1.509,4.124,1.509
		s-2.046-0.053-4.124,1.916C19.59,13.883,19.316,20.664,19.316,20.664z"/>
	<path display="inline" fill="#005999" d="M8.306,38.335c0,0-0.069-7.124-1.644-8.494c-1.062-0.921-4.272-1.436-4.272-1.436
		S5.155,28.541,6.8,26.69c1.319-1.484,1.398-6.027,1.398-6.027s0.421,5.028,1.684,6.233c1.262,1.206,4.123,1.509,4.123,1.509
		s-2.046-0.052-4.123,1.915C8.58,31.554,8.306,38.335,8.306,38.335z"/>
	<path display="inline" fill="#005A99" d="M53.282,87.125c-0.145,0-0.289-0.021-0.429-0.064
		C19.143,76.719,19.42,60.434,19.839,35.785c0.049-2.901,0.1-5.901,0.1-9.043c0-0.536,0.359-1.014,0.899-1.198
		C28.022,23.1,34.6,20.147,40.96,17.292c3.815-1.713,7.76-3.484,11.774-5.117c0.351-0.143,0.747-0.142,1.096,0
		c4.014,1.633,7.959,3.404,11.774,5.117c6.36,2.855,12.938,5.808,20.122,8.252c0.539,0.185,0.898,0.662,0.898,1.198
		c0,3.142,0.052,6.142,0.1,9.045c0.421,24.647,0.697,40.932-33.014,51.273C53.572,87.104,53.427,87.125,53.282,87.125z
		 M22.675,27.631c-0.008,2.839-0.054,5.557-0.099,8.194c-0.413,24.247-0.661,38.925,30.706,48.681
		C84.65,74.75,84.401,60.072,83.988,35.827c-0.045-2.637-0.091-5.357-0.099-8.196c-6.959-2.423-13.317-5.277-19.474-8.042
		c-3.618-1.625-7.354-3.302-11.134-4.854c-3.78,1.551-7.516,3.229-11.134,4.854C35.992,22.354,29.633,25.208,22.675,27.631z
		 M53.282,81.046c-0.156,0-0.311-0.025-0.461-0.074C36.819,75.649,32.082,69.442,29.744,64.63
		c-3.578-7.36-3.417-16.804-3.212-28.763l0.005-0.314c0.027-1.643,0.055-3.317,0.073-5.036c0.006-0.517,0.345-0.979,0.859-1.171
		c5.873-2.198,11.325-4.646,16.596-7.012c2.975-1.336,5.765-2.588,8.65-3.813c0.359-0.155,0.775-0.155,1.135,0
		c2.885,1.225,5.674,2.477,8.628,3.803c5.294,2.377,10.745,4.825,16.618,7.023c0.515,0.192,0.853,0.654,0.859,1.171
		c0.018,1.717,0.045,3.389,0.073,5.03l0.005,0.322c0.204,11.958,0.365,21.402-3.212,28.762c-2.339,4.813-7.076,11.02-23.078,16.342
		C53.594,81.021,53.438,81.046,53.282,81.046z M29.337,31.392c-0.018,1.427-0.041,2.826-0.064,4.201l-0.005,0.314
		c-0.199,11.639-0.355,20.831,2.968,27.671c2.094,4.309,6.382,9.875,21.045,14.837c14.663-4.961,18.951-10.528,21.046-14.837
		c3.323-6.839,3.167-16.031,2.968-27.67l-0.005-0.323c-0.023-1.373-0.047-2.768-0.064-4.194c-5.632-2.145-10.856-4.49-15.915-6.761
		c-2.766-1.241-5.369-2.41-8.029-3.549c-2.659,1.139-5.263,2.307-8.007,3.539C40.195,26.902,34.97,29.247,29.337,31.392z"/>
	<path display="inline" fill="#005A99" d="M53.372,21.842c-0.03-0.013-0.06-0.026-0.09-0.039c-2.485,1.069-4.95,2.177-7.544,3.341
		l-0.035,0.014c-4.935,2.216-10.025,4.501-15.508,6.607c-0.019,1.41-0.042,2.792-0.065,4.151
		c-0.092,5.452-0.171,10.358,0.108,14.734h23.134V21.842z"/>
	<path display="inline" fill="#005A99" d="M53.372,77.699c14.004-4.821,18.125-10.172,20.141-14.32
		c1.732-3.563,2.5-7.812,2.814-12.729H53.372V77.699z"/>
</g>
<g id="레이어_7" display="none">
	<polygon display="inline" fill="#005A99" points="52.311,78.852 45.403,78.852 47.974,27.912 49.736,27.912 	"/>
	<path display="inline" fill="#005A99" d="M75.77,83.883c0,0.883-0.935,1.601-2.09,1.601H23.463c-1.158,0-2.093-0.718-2.093-1.601
		V81.48c0-0.885,0.935-1.604,2.093-1.604H73.68c1.155,0,2.09,0.719,2.09,1.604V83.883z"/>
	<rect x="18.869" y="20.936" display="inline" fill="#005A99" width="61.112" height="3.666"/>
	<path display="inline" fill="#005A99" d="M2.818,53.614c-0.006,0.159-0.016,0.317-0.016,0.478c0,8.03,7.814,14.538,17.45,14.538
		c9.639,0,17.45-6.508,17.45-14.538c0-0.16-0.008-0.318-0.014-0.478H2.818z"/>
	<path display="inline" fill="#005A99" d="M19.563,25.007L4.092,55.514l1.654,0.837c0,0,13.123-25.876,14.628-28.845
		c1.462,2.99,14.159,28.946,14.159,28.946l1.667-0.816l-15.794-32.29L19.563,25.007z"/>
	<polygon display="inline" fill="#005A99" points="34.117,57.668 20.359,29.542 6.146,57.572 2.872,55.914 20.42,21.309 
		37.414,56.054 	"/>
	<path display="inline" fill="#005A99" d="M61.393,53.614c-0.008,0.159-0.016,0.317-0.016,0.478c0,8.03,7.812,14.538,17.448,14.538
		c9.636,0,17.449-6.508,17.449-14.538c0-0.16-0.009-0.318-0.015-0.478H61.393z"/>
	<path display="inline" fill="#005A99" d="M78.089,25.007L62.621,55.514l1.654,0.837c0,0,13.119-25.875,14.627-28.845
		c1.461,2.99,14.158,28.946,14.158,28.946l1.667-0.816l-15.797-32.29L78.089,25.007z"/>
	<path display="inline" fill="#005A99" d="M92.645,57.668l-0.4-0.816c0,0-10.178-20.806-13.358-27.309
		c-3.28,6.469-13.801,27.22-13.801,27.22l-0.41,0.81L61.4,55.914l17.544-34.605l16.997,34.745L92.645,57.668z"/>
	<path display="inline" fill="#005A99" d="M52.681,26.265c0,0.912-1.059,1.647-2.368,1.647h-2.37c-1.309,0-2.37-0.736-2.37-1.647
		V17.93c0-0.912,1.061-1.649,2.37-1.649h2.37c1.31,0,2.368,0.737,2.368,1.649V26.265z"/>
</g>
<g id="about" display="none">
	<path display="inline" fill="#005A99" d="M15.4,20.222c0.447,0.03,0.875,0.258,1.146,0.658c0.463,0.688,0.281,1.619-0.406,2.083
		c-1.284,0.864-4.284,3.19-4.395,6.094c-0.031,0.828-0.729,1.474-1.556,1.442c-0.821-0.039-1.474-0.729-1.442-1.557
		c0.164-4.276,4.052-7.347,5.716-8.468C14.75,20.28,15.08,20.2,15.4,20.222z"/>
	<path display="inline" fill="#005A99" d="M13.714,15.028c0.47,0.031,0.919,0.282,1.183,0.717c0.432,0.706,0.208,1.629-0.5,2.061
		l-0.398,0.243c-4.83,2.938-8.719,5.688-7.358,9.616c0.271,0.782-0.143,1.638-0.926,1.908c-0.782,0.273-1.638-0.144-1.908-0.926
		C1.541,22.113,8.1,18.125,12.439,15.485l0.396-0.242C13.11,15.078,13.416,15.008,13.714,15.028z"/>
	<path display="inline" fill="#005A99" d="M85.03,88.784c-0.347,0-0.686-0.065-1.008-0.195l-11.609-4.687
		c-4.265,1.9-8.85,2.171-13.186,2.171c-1.055,0-2.117-0.017-3.184-0.032c-1.06-0.017-2.124-0.033-3.19-0.033
		c-24.361,0-42.732-15.727-42.732-36.581c0-20.856,18.371-36.584,42.732-36.584c24.363,0,42.736,15.728,42.736,36.584
		c0,9.737-3.963,18.987-11.181,26.148l3.186,9.641c0.333,0.987,0.058,2.099-0.704,2.823C86.383,88.521,85.723,88.784,85.03,88.784z
		 M72.37,80.768c0.19,0,0.381,0.036,0.562,0.109l11.62,4.69l-3.286-9.943c-0.183-0.552-0.03-1.16,0.393-1.56
		c7.049-6.678,10.932-15.427,10.932-24.638c0-19.146-17.083-33.584-39.736-33.584c-22.651,0-39.732,14.438-39.732,33.584
		c0,19.145,17.081,33.581,39.732,33.581c1.082,0,2.162,0.017,3.237,0.033c1.051,0.017,2.097,0.032,3.137,0.032
		c4.838,0,8.813-0.366,12.486-2.154C71.92,80.818,72.146,80.768,72.37,80.768z"/>
	<polygon display="inline" fill="#005A99" points="62.924,30 52.973,30 64.021,49 52.973,68 62.924,68 73.972,49 	"/>
	<rect x="39" y="30" display="inline" fill="#005A99" width="7" height="38"/>
</g>
<g id="CreditScore" display="none">
	<path display="inline" fill="#005A99" d="M20.598,49.008L4.863,46.233c-1.836,11.898,1.09,23.474,7.399,32.744l13.088-9.165
		C21.385,63.895,19.521,56.561,20.598,49.008z"/>
	<path display="inline" fill="#005A99" d="M50.167,69.522c-9.11,0-16.522-7.412-16.522-16.522s7.412-16.522,16.522-16.522
		S66.689,43.89,66.689,53S59.277,69.522,50.167,69.522z M50.167,39.478c-7.456,0-13.522,6.066-13.522,13.522
		s6.066,13.522,13.522,13.522S63.689,60.456,63.689,53S57.623,39.478,50.167,39.478z"/>
	<circle display="inline" fill="#005A99" cx="50.167" cy="53" r="8.789"/>
	<polygon display="inline" fill="#005A99" points="47.026,45.482 59.424,27.747 56.77,49.223 	"/>
	<path display="inline" fill="#005A99" d="M80.023,53h15.978c0-12.032-4.649-22.969-12.234-31.145L72.465,33.156
		C77.163,38.432,80.023,45.38,80.023,53z"/>
	<path display="inline" fill="#005A99" d="M4.333,53h15.978c0-16.098,12.742-29.213,28.689-29.827V7.195
		C24.228,7.816,4.333,28.078,4.333,53z"/>
	<path display="inline" fill="#005A99" d="M70.354,31.025l11.301-11.301C73.856,12.341,63.476,7.664,52,7.211v15.994
		C59.065,23.635,65.459,26.525,70.354,31.025z"/>
</g>
<g id="Exchange" display="none">
	<g display="inline">
		<path fill="#005999" d="M47.362,55.324v-4.077c-1.523-0.362-2.642-0.913-3.355-1.649c-0.71-0.736-1.066-1.629-1.066-2.681
			c0-1.063,0.402-1.958,1.209-2.683c0.804-0.722,1.876-1.139,3.213-1.25v-0.963h1.693v0.963c1.235,0.124,2.221,0.477,2.952,1.057
			c0.73,0.58,1.199,1.357,1.4,2.331l-2.951,0.321c-0.181-0.766-0.646-1.285-1.401-1.558v3.806c1.866,0.422,3.14,0.969,3.815,1.641
			c0.678,0.671,1.016,1.531,1.016,2.582c0,1.176-0.425,2.164-1.278,2.969c-0.853,0.805-2.036,1.298-3.553,1.479v1.819h-1.693v-1.771
			c-1.346-0.137-2.438-0.554-3.278-1.256c-0.841-0.7-1.376-1.69-1.61-2.969l3.046-0.272c0.125,0.52,0.357,0.968,0.701,1.344
			C46.563,54.885,46.943,55.156,47.362,55.324z M47.362,45.106c-0.459,0.13-0.822,0.351-1.096,0.662
			c-0.272,0.312-0.408,0.655-0.408,1.032c0,0.343,0.123,0.662,0.373,0.958c0.248,0.296,0.626,0.533,1.131,0.714V45.106z
			 M49.056,55.461c0.582-0.09,1.057-0.315,1.424-0.676c0.363-0.359,0.547-0.783,0.547-1.271c0-0.434-0.153-0.81-0.46-1.124
			s-0.812-0.556-1.511-0.725V55.461z"/>
	</g>
	<path display="inline" fill="#005A99" d="M48.225,69.316c-10.312,0-18.7-8.393-18.7-18.71c0-10.312,8.389-18.698,18.7-18.698
		c9.635,0,17.633,7.217,18.605,16.787c0.059,0.57-0.355,1.078-0.926,1.136c-0.555,0.059-1.077-0.356-1.136-0.927
		c-0.865-8.508-7.977-14.924-16.544-14.924c-9.168,0-16.628,7.458-16.628,16.626c0,9.175,7.46,16.638,16.628,16.638
		c2.587,0,5.064-0.578,7.365-1.718c0.514-0.253,1.136-0.044,1.389,0.47c0.255,0.513,0.044,1.135-0.469,1.389
		C53.92,68.666,51.134,69.316,48.225,69.316z"/>
	<path display="inline" fill="#005A99" d="M48.244,64.803c-7.764,0-14.078-6.315-14.078-14.078c0-7.76,6.314-14.074,14.078-14.074
		c7.013,0,13.009,5.232,13.945,12.172c0.038,0.283-0.161,0.545-0.444,0.583c-0.284,0.044-0.544-0.161-0.582-0.444
		c-0.868-6.428-6.422-11.273-12.919-11.273c-7.191,0-13.042,5.848-13.042,13.037c0,7.191,5.851,13.042,13.042,13.042
		c3.082,0,6.071-1.096,8.42-3.085c0.218-0.185,0.545-0.158,0.73,0.061s0.158,0.546-0.062,0.73
		C54.799,63.619,51.571,64.803,48.244,64.803z"/>
	<g display="inline">
		<path fill="#005A99" d="M70.39,68.758H57.855c-1.638,0-2.972-1.263-2.972-2.814v-2.568c0-1.551,1.334-2.814,2.972-2.814H70.39
			c1.64,0,2.973,1.264,2.973,2.814v2.568C73.362,67.495,72.029,68.758,70.39,68.758z M57.855,62.633
			c-0.496,0-0.899,0.334-0.899,0.742v2.568c0,0.408,0.403,0.742,0.899,0.742H70.39c0.497,0,0.9-0.334,0.9-0.742v-2.568
			c0-0.408-0.403-0.742-0.9-0.742H57.855z"/>
		<path fill="#005A99" d="M70.364,62.535H57.83c-1.64,0-2.973-1.264-2.973-2.814v-2.568c0-1.553,1.333-2.814,2.973-2.814h12.534
			c1.64,0,2.973,1.262,2.973,2.814v2.568C73.337,61.271,72.004,62.535,70.364,62.535z M57.83,56.41c-0.497,0-0.9,0.333-0.9,0.742
			v2.568c0,0.408,0.403,0.741,0.9,0.741h12.534c0.497,0,0.9-0.333,0.9-0.741v-2.568c0-0.409-0.403-0.742-0.9-0.742H57.83z"/>
		<path fill="#005A99" d="M70.458,56.324H57.925c-1.64,0-2.973-1.264-2.973-2.816v-2.568c0-1.552,1.333-2.813,2.973-2.813h12.533
			c1.639,0,2.973,1.262,2.973,2.813v2.568C73.431,55.061,72.097,56.324,70.458,56.324z M57.925,50.199c-0.497,0-0.9,0.332-0.9,0.74
			v2.568c0,0.41,0.403,0.743,0.9,0.743h12.533c0.497,0,0.9-0.333,0.9-0.743v-2.568c0-0.408-0.403-0.74-0.9-0.74H57.925z"/>
	</g>
	<rect x="69.55" y="50.759" display="inline" fill="#005A99" width="0.615" height="2.728"/>
	<rect x="69.58" y="57.037" display="inline" fill="#005A99" width="0.617" height="2.727"/>
	<rect x="69.58" y="63.191" display="inline" fill="#005A99" width="0.617" height="2.727"/>
	<rect x="68.007" y="50.759" display="inline" fill="#005A99" width="0.826" height="2.728"/>
	<rect x="68.049" y="57.037" display="inline" fill="#005A99" width="0.825" height="2.727"/>
	<rect x="68.049" y="63.191" display="inline" fill="#005A99" width="0.825" height="2.727"/>
	<path display="inline" fill="#005A99" d="M86.891,64.991l9.763-14.614c0.132-0.197,0.145-0.452,0.032-0.661
		c-0.112-0.208-0.33-0.341-0.567-0.341h-6.911C88.52,27.92,70.862,10.674,49.243,10.674c-10.967,0-21.198,4.353-28.809,12.253
		l4.154,4.002c6.514-6.761,15.269-10.485,24.654-10.484c18.435-0.001,33.503,14.65,34.194,32.931h-6.844
		c-0.237,0-0.456,0.133-0.567,0.341c-0.052,0.095-0.076,0.2-0.075,0.304c0,0.125,0.035,0.25,0.108,0.357l9.762,14.614
		c0.118,0.179,0.32,0.286,0.534,0.286C86.57,65.277,86.772,65.17,86.891,64.991z"/>
	<path display="inline" fill="#005A99" d="M49.705,90.553c10.968,0.001,21.198-4.352,28.812-12.252l-4.155-4.002
		c-6.514,6.761-15.27,10.484-24.656,10.484c-18.432,0-33.502-14.65-34.193-32.934l6.846,0.001c0.236-0.001,0.454-0.13,0.566-0.341
		c0.114-0.209,0.101-0.463-0.032-0.661l-9.761-14.614c-0.12-0.179-0.321-0.285-0.535-0.285c-0.215-0.001-0.417,0.106-0.534,0.285
		L2.297,50.85c-0.072,0.106-0.108,0.232-0.108,0.355c0,0.104,0.026,0.21,0.077,0.305c0.112,0.21,0.33,0.34,0.567,0.341l6.91-0.001
		C10.43,73.307,28.087,90.553,49.705,90.553z"/>
</g>
</svg>
